<svg width="1440" height="904" viewBox="0 0 1440 904" fill="none" xmlns="http://www.w3.org/2000/svg">
<line x1="30.5" y1="2.18557e-08" x2="30.5" y2="904" stroke="white"/>
<line x1="81.6111" y1="2.18557e-08" x2="81.611" y2="904" stroke="white"/>
<line x1="132.722" y1="2.18557e-08" x2="132.722" y2="904" stroke="white"/>
<line x1="183.833" y1="2.18557e-08" x2="183.833" y2="904" stroke="white"/>
<line x1="234.944" y1="2.18557e-08" x2="234.944" y2="904" stroke="white"/>
<line x1="286.056" y1="2.18557e-08" x2="286.056" y2="904" stroke="white"/>
<line x1="337.167" y1="2.18557e-08" x2="337.167" y2="904" stroke="white"/>
<line x1="388.278" y1="2.18557e-08" x2="388.278" y2="904" stroke="white"/>
<line x1="439.389" y1="2.18557e-08" x2="439.389" y2="904" stroke="white"/>
<line x1="490.5" y1="2.18557e-08" x2="490.5" y2="904" stroke="white"/>
<line x1="541.611" y1="2.18557e-08" x2="541.611" y2="904" stroke="white"/>
<line x1="592.722" y1="2.18557e-08" x2="592.722" y2="904" stroke="white"/>
<line x1="643.833" y1="2.18557e-08" x2="643.833" y2="904" stroke="white"/>
<line x1="694.944" y1="2.18557e-08" x2="694.944" y2="904" stroke="white"/>
<line x1="746.055" y1="2.18557e-08" x2="746.055" y2="904" stroke="white"/>
<line x1="797.167" y1="2.18557e-08" x2="797.166" y2="904" stroke="white"/>
<line x1="848.278" y1="2.18557e-08" x2="848.278" y2="904" stroke="white"/>
<line x1="899.389" y1="2.18557e-08" x2="899.389" y2="904" stroke="white"/>
<line x1="950.5" y1="2.18557e-08" x2="950.5" y2="904" stroke="white"/>
<line x1="1001.61" y1="2.18557e-08" x2="1001.61" y2="904" stroke="white"/>
<line x1="1052.72" y1="2.18557e-08" x2="1052.72" y2="904" stroke="white"/>
<line x1="1103.83" y1="2.18557e-08" x2="1103.83" y2="904" stroke="white"/>
<line x1="1154.94" y1="2.18557e-08" x2="1154.94" y2="904" stroke="white"/>
<line x1="1206.06" y1="2.18557e-08" x2="1206.06" y2="904" stroke="white"/>
<line x1="1257.17" y1="2.18557e-08" x2="1257.17" y2="904" stroke="white"/>
<line x1="1308.28" y1="2.18557e-08" x2="1308.28" y2="904" stroke="white"/>
<line x1="1359.39" y1="2.18557e-08" x2="1359.39" y2="904" stroke="white"/>
<line x1="1410.5" y1="2.18557e-08" x2="1410.5" y2="904" stroke="white"/>
<line y1="29.5" x2="1440" y2="29.5" stroke="white"/>
<line y1="73.9211" x2="1440" y2="73.9211" stroke="white"/>
<line y1="118.342" x2="1440" y2="118.342" stroke="white"/>
<line y1="162.763" x2="1440" y2="162.763" stroke="white"/>
<line y1="207.184" x2="1440" y2="207.184" stroke="white"/>
<line y1="251.605" x2="1440" y2="251.605" stroke="white"/>
<line y1="296.026" x2="1440" y2="296.026" stroke="white"/>
<line y1="340.447" x2="1440" y2="340.447" stroke="white"/>
<line y1="384.868" x2="1440" y2="384.868" stroke="white"/>
<line y1="429.29" x2="1440" y2="429.29" stroke="white"/>
<line y1="473.71" x2="1440" y2="473.71" stroke="white"/>
<line y1="518.132" x2="1440" y2="518.132" stroke="white"/>
<line y1="562.553" x2="1440" y2="562.553" stroke="white"/>
<line y1="606.974" x2="1440" y2="606.974" stroke="white"/>
<line y1="651.395" x2="1440" y2="651.395" stroke="white"/>
<line y1="695.816" x2="1440" y2="695.816" stroke="white"/>
<line y1="740.237" x2="1440" y2="740.237" stroke="white"/>
<line y1="784.658" x2="1440" y2="784.658" stroke="white"/>
<line y1="829.079" x2="1440" y2="829.079" stroke="white"/>
<line y1="873.5" x2="1440" y2="873.5" stroke="white"/>
</svg>
