<svg xmlns="http://www.w3.org/2000/svg" viewBox="0 0 64 64"><defs><style>.cls-1{fill:#333;}.cls-2{fill:#fff;}.cls-3{fill:none;stroke:#333;stroke-miterlimit:10;stroke-width:2px;}</style></defs><g id="Layer_2" data-name="Layer 2"><rect class="cls-1" width="64" height="64" rx="18"/><line class="cls-1" x1="32.59" y1="31.41" x2="48.65" y2="15.35"/><line class="cls-1" x1="32.59" y1="32" x2="48.65" y2="48.05"/><line class="cls-1" x1="32" y1="32" x2="15.95" y2="48.05"/><line class="cls-1" x1="32" y1="31.41" x2="15.95" y2="15.35"/><circle class="cls-1" cx="32.59" cy="31.41" r="8.32"/><circle class="cls-1" cx="49.24" cy="14.76" r="4.76"/><circle class="cls-1" cx="49.24" cy="49.24" r="4.76"/><circle class="cls-1" cx="14.76" cy="49.24" r="4.76"/><circle class="cls-1" cx="14.76" cy="14.76" r="4.76"/><rect class="cls-2" width="64" height="64" rx="18"/><line class="cls-3" x1="32.59" y1="31.41" x2="48.65" y2="15.35"/><line class="cls-3" x1="32.59" y1="32" x2="48.65" y2="48.05"/><line class="cls-3" x1="32" y1="32" x2="15.95" y2="48.05"/><line class="cls-3" x1="32" y1="31.41" x2="15.95" y2="15.35"/><circle class="cls-1" cx="32.59" cy="31.41" r="8.32"/><circle class="cls-1" cx="49.24" cy="14.76" r="4.76"/><circle class="cls-1" cx="49.24" cy="49.24" r="4.76"/><circle class="cls-1" cx="14.76" cy="49.24" r="4.76"/><circle class="cls-1" cx="14.76" cy="14.76" r="4.76"/></g></svg>