<svg id="logoSvg" xmlns="http://www.w3.org/2000/svg" viewBox="0 0 1000 1000" width="50px" height="50px"><path d="M268.25,744.33V255.67a4.64,4.64,0,0,1,4.64-4.64h67.27a4.64,4.64,0,0,1,4.64,4.64V397.85a1.74,1.74,0,0,0,3.12,1.06L489,251.68a1.71,1.71,0,0,1,1.34-.65H593a3.08,3.08,0,0,1,2.44,5l-229,241.11a6.08,6.08,0,0,0,0,7.45L595.36,744a3.08,3.08,0,0,1-2.42,5H486.32a1.69,1.69,0,0,1-1.33-.65L348.82,606.89a1.89,1.89,0,0,0-3.33,1.21l-.24,138.12A2.75,2.75,0,0,1,342.5,749H272.89A4.64,4.64,0,0,1,268.25,744.33Z"/><path d="M565.83,370.45h57.86a2.69,2.69,0,0,1,2.58,2.79V626.76a2.69,2.69,0,0,1-2.58,2.79H565.83a2.69,2.69,0,0,1-2.58-2.79V373.24A2.69,2.69,0,0,1,565.83,370.45Z"/><path d="M692,443.45h46c1,0,1.77.58,1.77,1.29V555.26c0,.71-.79,1.29-1.77,1.29H692c-1,0-1.77-.58-1.77-1.29V444.74C690.25,444,691,443.45,692,443.45Z"/></svg>