<svg width="252" height="139" viewBox="0 0 252 139" fill="none" xmlns="http://www.w3.org/2000/svg">
<g clip-path="url(#clip0_559_16)">
<path d="M3.192 10.892L3.444 8.768H2.22L1.98 10.832L1.14 10.844L1.392 8.792H0.264L0.312 8.132H1.476L1.704 6.212H0.432L0.468 5.528H1.776L2.004 3.512L2.868 3.488L2.616 5.504H3.828L4.056 3.536L4.944 3.524L4.704 5.48H5.76L5.676 6.176H4.62L4.38 8.072H5.52L5.46 8.732H4.32L4.056 10.832L3.192 10.892ZM2.304 8.108H3.516L3.756 6.2H2.532L2.304 8.108ZM9.192 10.892L9.444 8.768H8.22L7.98 10.832L7.14 10.844L7.392 8.792H6.264L6.312 8.132H7.476L7.704 6.212H6.432L6.468 5.528H7.776L8.004 3.512L8.868 3.488L8.616 5.504H9.828L10.056 3.536L10.944 3.524L10.704 5.48H11.76L11.676 6.176H10.62L10.38 8.072H11.52L11.46 8.732H10.32L10.056 10.832L9.192 10.892ZM8.304 8.108H9.516L9.756 6.2H8.532L8.304 8.108ZM15.192 10.892L15.444 8.768H14.22L13.98 10.832L13.14 10.844L13.392 8.792H12.264L12.312 8.132H13.476L13.704 6.212H12.432L12.468 5.528H13.776L14.004 3.512L14.868 3.488L14.616 5.504H15.828L16.056 3.536L16.944 3.524L16.704 5.48H17.76L17.676 6.176H16.62L16.38 8.072H17.52L17.46 8.732H16.32L16.056 10.832L15.192 10.892ZM14.304 8.108H15.516L15.756 6.2H14.532L14.304 8.108ZM21.192 10.892L21.444 8.768H20.22L19.98 10.832L19.14 10.844L19.392 8.792H18.264L18.312 8.132H19.476L19.704 6.212H18.432L18.468 5.528H19.776L20.004 3.512L20.868 3.488L20.616 5.504H21.828L22.056 3.536L22.944 3.524L22.704 5.48H23.76L23.676 6.176H22.62L22.38 8.072H23.52L23.46 8.732H22.32L22.056 10.832L21.192 10.892ZM20.304 8.108H21.516L21.756 6.2H20.532L20.304 8.108ZM51.192 10.892L51.444 8.768H50.22L49.98 10.832L49.14 10.844L49.392 8.792H48.264L48.312 8.132H49.476L49.704 6.212H48.432L48.468 5.528H49.776L50.004 3.512L50.868 3.488L50.616 5.504H51.828L52.056 3.536L52.944 3.524L52.704 5.48H53.76L53.676 6.176H52.62L52.38 8.072H53.52L53.46 8.732H52.32L52.056 10.832L51.192 10.892ZM50.304 8.108H51.516L51.756 6.2H50.532L50.304 8.108ZM57.192 10.892L57.444 8.768H56.22L55.98 10.832L55.14 10.844L55.392 8.792H54.264L54.312 8.132H55.476L55.704 6.212H54.432L54.468 5.528H55.776L56.004 3.512L56.868 3.488L56.616 5.504H57.828L58.056 3.536L58.944 3.524L58.704 5.48H59.76L59.676 6.176H58.62L58.38 8.072H59.52L59.46 8.732H58.32L58.056 10.832L57.192 10.892ZM56.304 8.108H57.516L57.756 6.2H56.532L56.304 8.108ZM63.192 10.892L63.444 8.768H62.22L61.98 10.832L61.14 10.844L61.392 8.792H60.264L60.312 8.132H61.476L61.704 6.212H60.432L60.468 5.528H61.776L62.004 3.512L62.868 3.488L62.616 5.504H63.828L64.056 3.536L64.944 3.524L64.704 5.48H65.76L65.676 6.176H64.62L64.38 8.072H65.52L65.46 8.732H64.32L64.056 10.832L63.192 10.892ZM62.304 8.108H63.516L63.756 6.2H62.532L62.304 8.108ZM69.192 10.892L69.444 8.768H68.22L67.98 10.832L67.14 10.844L67.392 8.792H66.264L66.312 8.132H67.476L67.704 6.212H66.432L66.468 5.528H67.776L68.004 3.512L68.868 3.488L68.616 5.504H69.828L70.056 3.536L70.944 3.524L70.704 5.48H71.76L71.676 6.176H70.62L70.38 8.072H71.52L71.46 8.732H70.32L70.056 10.832L69.192 10.892ZM68.304 8.108H69.516L69.756 6.2H68.532L68.304 8.108ZM99.192 10.892L99.444 8.768H98.22L97.98 10.832L97.14 10.844L97.392 8.792H96.264L96.312 8.132H97.476L97.704 6.212H96.432L96.468 5.528H97.776L98.004 3.512L98.868 3.488L98.616 5.504H99.828L100.056 3.536L100.944 3.524L100.704 5.48H101.76L101.676 6.176H100.62L100.38 8.072H101.52L101.46 8.732H100.32L100.056 10.832L99.192 10.892ZM98.304 8.108H99.516L99.756 6.2H98.532L98.304 8.108ZM105.192 10.892L105.444 8.768H104.22L103.98 10.832L103.14 10.844L103.392 8.792H102.264L102.312 8.132H103.476L103.704 6.212H102.432L102.468 5.528H103.776L104.004 3.512L104.868 3.488L104.616 5.504H105.828L106.056 3.536L106.944 3.524L106.704 5.48H107.76L107.676 6.176H106.62L106.38 8.072H107.52L107.46 8.732H106.32L106.056 10.832L105.192 10.892ZM104.304 8.108H105.516L105.756 6.2H104.532L104.304 8.108ZM111.192 10.892L111.444 8.768H110.22L109.98 10.832L109.14 10.844L109.392 8.792H108.264L108.312 8.132H109.476L109.704 6.212H108.432L108.468 5.528H109.776L110.004 3.512L110.868 3.488L110.616 5.504H111.828L112.056 3.536L112.944 3.524L112.704 5.48H113.76L113.676 6.176H112.62L112.38 8.072H113.52L113.46 8.732H112.32L112.056 10.832L111.192 10.892ZM110.304 8.108H111.516L111.756 6.2H110.532L110.304 8.108ZM117.192 10.892L117.444 8.768H116.22L115.98 10.832L115.14 10.844L115.392 8.792H114.264L114.312 8.132H115.476L115.704 6.212H114.432L114.468 5.528H115.776L116.004 3.512L116.868 3.488L116.616 5.504H117.828L118.056 3.536L118.944 3.524L118.704 5.48H119.76L119.676 6.176H118.62L118.38 8.072H119.52L119.46 8.732H118.32L118.056 10.832L117.192 10.892ZM116.304 8.108H117.516L117.756 6.2H116.532L116.304 8.108ZM123.192 10.892L123.444 8.768H122.22L121.98 10.832L121.14 10.844L121.392 8.792H120.264L120.312 8.132H121.476L121.704 6.212H120.432L120.468 5.528H121.776L122.004 3.512L122.868 3.488L122.616 5.504H123.828L124.056 3.536L124.944 3.524L124.704 5.48H125.76L125.676 6.176H124.62L124.38 8.072H125.52L125.46 8.732H124.32L124.056 10.832L123.192 10.892ZM122.304 8.108H123.516L123.756 6.2H122.532L122.304 8.108ZM129.192 10.892L129.444 8.768H128.22L127.98 10.832L127.14 10.844L127.392 8.792H126.264L126.312 8.132H127.476L127.704 6.212H126.432L126.468 5.528H127.776L128.004 3.512L128.868 3.488L128.616 5.504H129.828L130.056 3.536L130.944 3.524L130.704 5.48H131.76L131.676 6.176H130.62L130.38 8.072H131.52L131.46 8.732H130.32L130.056 10.832L129.192 10.892ZM128.304 8.108H129.516L129.756 6.2H128.532L128.304 8.108ZM135.192 10.892L135.444 8.768H134.22L133.98 10.832L133.14 10.844L133.392 8.792H132.264L132.312 8.132H133.476L133.704 6.212H132.432L132.468 5.528H133.776L134.004 3.512L134.868 3.488L134.616 5.504H135.828L136.056 3.536L136.944 3.524L136.704 5.48H137.76L137.676 6.176H136.62L136.38 8.072H137.52L137.46 8.732H136.32L136.056 10.832L135.192 10.892ZM134.304 8.108H135.516L135.756 6.2H134.532L134.304 8.108ZM141.192 10.892L141.444 8.768H140.22L139.98 10.832L139.14 10.844L139.392 8.792H138.264L138.312 8.132H139.476L139.704 6.212H138.432L138.468 5.528H139.776L140.004 3.512L140.868 3.488L140.616 5.504H141.828L142.056 3.536L142.944 3.524L142.704 5.48H143.76L143.676 6.176H142.62L142.38 8.072H143.52L143.46 8.732H142.32L142.056 10.832L141.192 10.892ZM140.304 8.108H141.516L141.756 6.2H140.532L140.304 8.108ZM147.192 10.892L147.444 8.768H146.22L145.98 10.832L145.14 10.844L145.392 8.792H144.264L144.312 8.132H145.476L145.704 6.212H144.432L144.468 5.528H145.776L146.004 3.512L146.868 3.488L146.616 5.504H147.828L148.056 3.536L148.944 3.524L148.704 5.48H149.76L149.676 6.176H148.62L148.38 8.072H149.52L149.46 8.732H148.32L148.056 10.832L147.192 10.892ZM146.304 8.108H147.516L147.756 6.2H146.532L146.304 8.108ZM153.192 10.892L153.444 8.768H152.22L151.98 10.832L151.14 10.844L151.392 8.792H150.264L150.312 8.132H151.476L151.704 6.212H150.432L150.468 5.528H151.776L152.004 3.512L152.868 3.488L152.616 5.504H153.828L154.056 3.536L154.944 3.524L154.704 5.48H155.76L155.676 6.176H154.62L154.38 8.072H155.52L155.46 8.732H154.32L154.056 10.832L153.192 10.892ZM152.304 8.108H153.516L153.756 6.2H152.532L152.304 8.108ZM183.192 10.892L183.444 8.768H182.22L181.98 10.832L181.14 10.844L181.392 8.792H180.264L180.312 8.132H181.476L181.704 6.212H180.432L180.468 5.528H181.776L182.004 3.512L182.868 3.488L182.616 5.504H183.828L184.056 3.536L184.944 3.524L184.704 5.48H185.76L185.676 6.176H184.62L184.38 8.072H185.52L185.46 8.732H184.32L184.056 10.832L183.192 10.892ZM182.304 8.108H183.516L183.756 6.2H182.532L182.304 8.108ZM189.192 10.892L189.444 8.768H188.22L187.98 10.832L187.14 10.844L187.392 8.792H186.264L186.312 8.132H187.476L187.704 6.212H186.432L186.468 5.528H187.776L188.004 3.512L188.868 3.488L188.616 5.504H189.828L190.056 3.536L190.944 3.524L190.704 5.48H191.76L191.676 6.176H190.62L190.38 8.072H191.52L191.46 8.732H190.32L190.056 10.832L189.192 10.892ZM188.304 8.108H189.516L189.756 6.2H188.532L188.304 8.108ZM195.192 10.892L195.444 8.768H194.22L193.98 10.832L193.14 10.844L193.392 8.792H192.264L192.312 8.132H193.476L193.704 6.212H192.432L192.468 5.528H193.776L194.004 3.512L194.868 3.488L194.616 5.504H195.828L196.056 3.536L196.944 3.524L196.704 5.48H197.76L197.676 6.176H196.62L196.38 8.072H197.52L197.46 8.732H196.32L196.056 10.832L195.192 10.892ZM194.304 8.108H195.516L195.756 6.2H194.532L194.304 8.108ZM201.192 10.892L201.444 8.768H200.22L199.98 10.832L199.14 10.844L199.392 8.792H198.264L198.312 8.132H199.476L199.704 6.212H198.432L198.468 5.528H199.776L200.004 3.512L200.868 3.488L200.616 5.504H201.828L202.056 3.536L202.944 3.524L202.704 5.48H203.76L203.676 6.176H202.62L202.38 8.072H203.52L203.46 8.732H202.32L202.056 10.832L201.192 10.892ZM200.304 8.108H201.516L201.756 6.2H200.532L200.304 8.108ZM231.192 10.892L231.444 8.768H230.22L229.98 10.832L229.14 10.844L229.392 8.792H228.264L228.312 8.132H229.476L229.704 6.212H228.432L228.468 5.528H229.776L230.004 3.512L230.868 3.488L230.616 5.504H231.828L232.056 3.536L232.944 3.524L232.704 5.48H233.76L233.676 6.176H232.62L232.38 8.072H233.52L233.46 8.732H232.32L232.056 10.832L231.192 10.892ZM230.304 8.108H231.516L231.756 6.2H230.532L230.304 8.108ZM237.192 10.892L237.444 8.768H236.22L235.98 10.832L235.14 10.844L235.392 8.792H234.264L234.312 8.132H235.476L235.704 6.212H234.432L234.468 5.528H235.776L236.004 3.512L236.868 3.488L236.616 5.504H237.828L238.056 3.536L238.944 3.524L238.704 5.48H239.76L239.676 6.176H238.62L238.38 8.072H239.52L239.46 8.732H238.32L238.056 10.832L237.192 10.892ZM236.304 8.108H237.516L237.756 6.2H236.532L236.304 8.108ZM243.192 10.892L243.444 8.768H242.22L241.98 10.832L241.14 10.844L241.392 8.792H240.264L240.312 8.132H241.476L241.704 6.212H240.432L240.468 5.528H241.776L242.004 3.512L242.868 3.488L242.616 5.504H243.828L244.056 3.536L244.944 3.524L244.704 5.48H245.76L245.676 6.176H244.62L244.38 8.072H245.52L245.46 8.732H244.32L244.056 10.832L243.192 10.892ZM242.304 8.108H243.516L243.756 6.2H242.532L242.304 8.108ZM249.192 10.892L249.444 8.768H248.22L247.98 10.832L247.14 10.844L247.392 8.792H246.264L246.312 8.132H247.476L247.704 6.212H246.432L246.468 5.528H247.776L248.004 3.512L248.868 3.488L248.616 5.504H249.828L250.056 3.536L250.944 3.524L250.704 5.48H251.76L251.676 6.176H250.62L250.38 8.072H251.52L251.46 8.732H250.32L250.056 10.832L249.192 10.892ZM248.304 8.108H249.516L249.756 6.2H248.532L248.304 8.108Z" fill="white"/>
<path d="M3.192 28.892L3.444 26.768H2.22L1.98 28.832L1.14 28.844L1.392 26.792H0.264L0.312 26.132H1.476L1.704 24.212H0.432L0.468 23.528H1.776L2.004 21.512L2.868 21.488L2.616 23.504H3.828L4.056 21.536L4.944 21.524L4.704 23.48H5.76L5.676 24.176H4.62L4.38 26.072H5.52L5.46 26.732H4.32L4.056 28.832L3.192 28.892ZM2.304 26.108H3.516L3.756 24.2H2.532L2.304 26.108ZM9.192 28.892L9.444 26.768H8.22L7.98 28.832L7.14 28.844L7.392 26.792H6.264L6.312 26.132H7.476L7.704 24.212H6.432L6.468 23.528H7.776L8.004 21.512L8.868 21.488L8.616 23.504H9.828L10.056 21.536L10.944 21.524L10.704 23.48H11.76L11.676 24.176H10.62L10.38 26.072H11.52L11.46 26.732H10.32L10.056 28.832L9.192 28.892ZM8.304 26.108H9.516L9.756 24.2H8.532L8.304 26.108ZM15.192 28.892L15.444 26.768H14.22L13.98 28.832L13.14 28.844L13.392 26.792H12.264L12.312 26.132H13.476L13.704 24.212H12.432L12.468 23.528H13.776L14.004 21.512L14.868 21.488L14.616 23.504H15.828L16.056 21.536L16.944 21.524L16.704 23.48H17.76L17.676 24.176H16.62L16.38 26.072H17.52L17.46 26.732H16.32L16.056 28.832L15.192 28.892ZM14.304 26.108H15.516L15.756 24.2H14.532L14.304 26.108ZM21.192 28.892L21.444 26.768H20.22L19.98 28.832L19.14 28.844L19.392 26.792H18.264L18.312 26.132H19.476L19.704 24.212H18.432L18.468 23.528H19.776L20.004 21.512L20.868 21.488L20.616 23.504H21.828L22.056 21.536L22.944 21.524L22.704 23.48H23.76L23.676 24.176H22.62L22.38 26.072H23.52L23.46 26.732H22.32L22.056 28.832L21.192 28.892ZM20.304 26.108H21.516L21.756 24.2H20.532L20.304 26.108ZM51.192 28.892L51.444 26.768H50.22L49.98 28.832L49.14 28.844L49.392 26.792H48.264L48.312 26.132H49.476L49.704 24.212H48.432L48.468 23.528H49.776L50.004 21.512L50.868 21.488L50.616 23.504H51.828L52.056 21.536L52.944 21.524L52.704 23.48H53.76L53.676 24.176H52.62L52.38 26.072H53.52L53.46 26.732H52.32L52.056 28.832L51.192 28.892ZM50.304 26.108H51.516L51.756 24.2H50.532L50.304 26.108ZM57.192 28.892L57.444 26.768H56.22L55.98 28.832L55.14 28.844L55.392 26.792H54.264L54.312 26.132H55.476L55.704 24.212H54.432L54.468 23.528H55.776L56.004 21.512L56.868 21.488L56.616 23.504H57.828L58.056 21.536L58.944 21.524L58.704 23.48H59.76L59.676 24.176H58.62L58.38 26.072H59.52L59.46 26.732H58.32L58.056 28.832L57.192 28.892ZM56.304 26.108H57.516L57.756 24.2H56.532L56.304 26.108ZM63.192 28.892L63.444 26.768H62.22L61.98 28.832L61.14 28.844L61.392 26.792H60.264L60.312 26.132H61.476L61.704 24.212H60.432L60.468 23.528H61.776L62.004 21.512L62.868 21.488L62.616 23.504H63.828L64.056 21.536L64.944 21.524L64.704 23.48H65.76L65.676 24.176H64.62L64.38 26.072H65.52L65.46 26.732H64.32L64.056 28.832L63.192 28.892ZM62.304 26.108H63.516L63.756 24.2H62.532L62.304 26.108ZM69.192 28.892L69.444 26.768H68.22L67.98 28.832L67.14 28.844L67.392 26.792H66.264L66.312 26.132H67.476L67.704 24.212H66.432L66.468 23.528H67.776L68.004 21.512L68.868 21.488L68.616 23.504H69.828L70.056 21.536L70.944 21.524L70.704 23.48H71.76L71.676 24.176H70.62L70.38 26.072H71.52L71.46 26.732H70.32L70.056 28.832L69.192 28.892ZM68.304 26.108H69.516L69.756 24.2H68.532L68.304 26.108ZM99.192 28.892L99.444 26.768H98.22L97.98 28.832L97.14 28.844L97.392 26.792H96.264L96.312 26.132H97.476L97.704 24.212H96.432L96.468 23.528H97.776L98.004 21.512L98.868 21.488L98.616 23.504H99.828L100.056 21.536L100.944 21.524L100.704 23.48H101.76L101.676 24.176H100.62L100.38 26.072H101.52L101.46 26.732H100.32L100.056 28.832L99.192 28.892ZM98.304 26.108H99.516L99.756 24.2H98.532L98.304 26.108ZM105.192 28.892L105.444 26.768H104.22L103.98 28.832L103.14 28.844L103.392 26.792H102.264L102.312 26.132H103.476L103.704 24.212H102.432L102.468 23.528H103.776L104.004 21.512L104.868 21.488L104.616 23.504H105.828L106.056 21.536L106.944 21.524L106.704 23.48H107.76L107.676 24.176H106.62L106.38 26.072H107.52L107.46 26.732H106.32L106.056 28.832L105.192 28.892ZM104.304 26.108H105.516L105.756 24.2H104.532L104.304 26.108ZM111.192 28.892L111.444 26.768H110.22L109.98 28.832L109.14 28.844L109.392 26.792H108.264L108.312 26.132H109.476L109.704 24.212H108.432L108.468 23.528H109.776L110.004 21.512L110.868 21.488L110.616 23.504H111.828L112.056 21.536L112.944 21.524L112.704 23.48H113.76L113.676 24.176H112.62L112.38 26.072H113.52L113.46 26.732H112.32L112.056 28.832L111.192 28.892ZM110.304 26.108H111.516L111.756 24.2H110.532L110.304 26.108ZM141.192 28.892L141.444 26.768H140.22L139.98 28.832L139.14 28.844L139.392 26.792H138.264L138.312 26.132H139.476L139.704 24.212H138.432L138.468 23.528H139.776L140.004 21.512L140.868 21.488L140.616 23.504H141.828L142.056 21.536L142.944 21.524L142.704 23.48H143.76L143.676 24.176H142.62L142.38 26.072H143.52L143.46 26.732H142.32L142.056 28.832L141.192 28.892ZM140.304 26.108H141.516L141.756 24.2H140.532L140.304 26.108ZM147.192 28.892L147.444 26.768H146.22L145.98 28.832L145.14 28.844L145.392 26.792H144.264L144.312 26.132H145.476L145.704 24.212H144.432L144.468 23.528H145.776L146.004 21.512L146.868 21.488L146.616 23.504H147.828L148.056 21.536L148.944 21.524L148.704 23.48H149.76L149.676 24.176H148.62L148.38 26.072H149.52L149.46 26.732H148.32L148.056 28.832L147.192 28.892ZM146.304 26.108H147.516L147.756 24.2H146.532L146.304 26.108ZM153.192 28.892L153.444 26.768H152.22L151.98 28.832L151.14 28.844L151.392 26.792H150.264L150.312 26.132H151.476L151.704 24.212H150.432L150.468 23.528H151.776L152.004 21.512L152.868 21.488L152.616 23.504H153.828L154.056 21.536L154.944 21.524L154.704 23.48H155.76L155.676 24.176H154.62L154.38 26.072H155.52L155.46 26.732H154.32L154.056 28.832L153.192 28.892ZM152.304 26.108H153.516L153.756 24.2H152.532L152.304 26.108ZM183.192 28.892L183.444 26.768H182.22L181.98 28.832L181.14 28.844L181.392 26.792H180.264L180.312 26.132H181.476L181.704 24.212H180.432L180.468 23.528H181.776L182.004 21.512L182.868 21.488L182.616 23.504H183.828L184.056 21.536L184.944 21.524L184.704 23.48H185.76L185.676 24.176H184.62L184.38 26.072H185.52L185.46 26.732H184.32L184.056 28.832L183.192 28.892ZM182.304 26.108H183.516L183.756 24.2H182.532L182.304 26.108ZM189.192 28.892L189.444 26.768H188.22L187.98 28.832L187.14 28.844L187.392 26.792H186.264L186.312 26.132H187.476L187.704 24.212H186.432L186.468 23.528H187.776L188.004 21.512L188.868 21.488L188.616 23.504H189.828L190.056 21.536L190.944 21.524L190.704 23.48H191.76L191.676 24.176H190.62L190.38 26.072H191.52L191.46 26.732H190.32L190.056 28.832L189.192 28.892ZM188.304 26.108H189.516L189.756 24.2H188.532L188.304 26.108ZM195.192 28.892L195.444 26.768H194.22L193.98 28.832L193.14 28.844L193.392 26.792H192.264L192.312 26.132H193.476L193.704 24.212H192.432L192.468 23.528H193.776L194.004 21.512L194.868 21.488L194.616 23.504H195.828L196.056 21.536L196.944 21.524L196.704 23.48H197.76L197.676 24.176H196.62L196.38 26.072H197.52L197.46 26.732H196.32L196.056 28.832L195.192 28.892ZM194.304 26.108H195.516L195.756 24.2H194.532L194.304 26.108ZM201.192 28.892L201.444 26.768H200.22L199.98 28.832L199.14 28.844L199.392 26.792H198.264L198.312 26.132H199.476L199.704 24.212H198.432L198.468 23.528H199.776L200.004 21.512L200.868 21.488L200.616 23.504H201.828L202.056 21.536L202.944 21.524L202.704 23.48H203.76L203.676 24.176H202.62L202.38 26.072H203.52L203.46 26.732H202.32L202.056 28.832L201.192 28.892ZM200.304 26.108H201.516L201.756 24.2H200.532L200.304 26.108ZM231.192 28.892L231.444 26.768H230.22L229.98 28.832L229.14 28.844L229.392 26.792H228.264L228.312 26.132H229.476L229.704 24.212H228.432L228.468 23.528H229.776L230.004 21.512L230.868 21.488L230.616 23.504H231.828L232.056 21.536L232.944 21.524L232.704 23.48H233.76L233.676 24.176H232.62L232.38 26.072H233.52L233.46 26.732H232.32L232.056 28.832L231.192 28.892ZM230.304 26.108H231.516L231.756 24.2H230.532L230.304 26.108ZM237.192 28.892L237.444 26.768H236.22L235.98 28.832L235.14 28.844L235.392 26.792H234.264L234.312 26.132H235.476L235.704 24.212H234.432L234.468 23.528H235.776L236.004 21.512L236.868 21.488L236.616 23.504H237.828L238.056 21.536L238.944 21.524L238.704 23.48H239.76L239.676 24.176H238.62L238.38 26.072H239.52L239.46 26.732H238.32L238.056 28.832L237.192 28.892ZM236.304 26.108H237.516L237.756 24.2H236.532L236.304 26.108ZM243.192 28.892L243.444 26.768H242.22L241.98 28.832L241.14 28.844L241.392 26.792H240.264L240.312 26.132H241.476L241.704 24.212H240.432L240.468 23.528H241.776L242.004 21.512L242.868 21.488L242.616 23.504H243.828L244.056 21.536L244.944 21.524L244.704 23.48H245.76L245.676 24.176H244.62L244.38 26.072H245.52L245.46 26.732H244.32L244.056 28.832L243.192 28.892ZM242.304 26.108H243.516L243.756 24.2H242.532L242.304 26.108ZM249.192 28.892L249.444 26.768H248.22L247.98 28.832L247.14 28.844L247.392 26.792H246.264L246.312 26.132H247.476L247.704 24.212H246.432L246.468 23.528H247.776L248.004 21.512L248.868 21.488L248.616 23.504H249.828L250.056 21.536L250.944 21.524L250.704 23.48H251.76L251.676 24.176H250.62L250.38 26.072H251.52L251.46 26.732H250.32L250.056 28.832L249.192 28.892ZM248.304 26.108H249.516L249.756 24.2H248.532L248.304 26.108Z" fill="white"/>
<path d="M3.192 46.892L3.444 44.768H2.22L1.98 46.832L1.14 46.844L1.392 44.792H0.264L0.312 44.132H1.476L1.704 42.212H0.432L0.468 41.528H1.776L2.004 39.512L2.868 39.488L2.616 41.504H3.828L4.056 39.536L4.944 39.524L4.704 41.48H5.76L5.676 42.176H4.62L4.38 44.072H5.52L5.46 44.732H4.32L4.056 46.832L3.192 46.892ZM2.304 44.108H3.516L3.756 42.2H2.532L2.304 44.108ZM9.192 46.892L9.444 44.768H8.22L7.98 46.832L7.14 46.844L7.392 44.792H6.264L6.312 44.132H7.476L7.704 42.212H6.432L6.468 41.528H7.776L8.004 39.512L8.868 39.488L8.616 41.504H9.828L10.056 39.536L10.944 39.524L10.704 41.48H11.76L11.676 42.176H10.62L10.38 44.072H11.52L11.46 44.732H10.32L10.056 46.832L9.192 46.892ZM8.304 44.108H9.516L9.756 42.2H8.532L8.304 44.108ZM15.192 46.892L15.444 44.768H14.22L13.98 46.832L13.14 46.844L13.392 44.792H12.264L12.312 44.132H13.476L13.704 42.212H12.432L12.468 41.528H13.776L14.004 39.512L14.868 39.488L14.616 41.504H15.828L16.056 39.536L16.944 39.524L16.704 41.48H17.76L17.676 42.176H16.62L16.38 44.072H17.52L17.46 44.732H16.32L16.056 46.832L15.192 46.892ZM14.304 44.108H15.516L15.756 42.2H14.532L14.304 44.108ZM21.192 46.892L21.444 44.768H20.22L19.98 46.832L19.14 46.844L19.392 44.792H18.264L18.312 44.132H19.476L19.704 42.212H18.432L18.468 41.528H19.776L20.004 39.512L20.868 39.488L20.616 41.504H21.828L22.056 39.536L22.944 39.524L22.704 41.48H23.76L23.676 42.176H22.62L22.38 44.072H23.52L23.46 44.732H22.32L22.056 46.832L21.192 46.892ZM20.304 44.108H21.516L21.756 42.2H20.532L20.304 44.108ZM51.192 46.892L51.444 44.768H50.22L49.98 46.832L49.14 46.844L49.392 44.792H48.264L48.312 44.132H49.476L49.704 42.212H48.432L48.468 41.528H49.776L50.004 39.512L50.868 39.488L50.616 41.504H51.828L52.056 39.536L52.944 39.524L52.704 41.48H53.76L53.676 42.176H52.62L52.38 44.072H53.52L53.46 44.732H52.32L52.056 46.832L51.192 46.892ZM50.304 44.108H51.516L51.756 42.2H50.532L50.304 44.108ZM57.192 46.892L57.444 44.768H56.22L55.98 46.832L55.14 46.844L55.392 44.792H54.264L54.312 44.132H55.476L55.704 42.212H54.432L54.468 41.528H55.776L56.004 39.512L56.868 39.488L56.616 41.504H57.828L58.056 39.536L58.944 39.524L58.704 41.48H59.76L59.676 42.176H58.62L58.38 44.072H59.52L59.46 44.732H58.32L58.056 46.832L57.192 46.892ZM56.304 44.108H57.516L57.756 42.2H56.532L56.304 44.108ZM63.192 46.892L63.444 44.768H62.22L61.98 46.832L61.14 46.844L61.392 44.792H60.264L60.312 44.132H61.476L61.704 42.212H60.432L60.468 41.528H61.776L62.004 39.512L62.868 39.488L62.616 41.504H63.828L64.056 39.536L64.944 39.524L64.704 41.48H65.76L65.676 42.176H64.62L64.38 44.072H65.52L65.46 44.732H64.32L64.056 46.832L63.192 46.892ZM62.304 44.108H63.516L63.756 42.2H62.532L62.304 44.108ZM69.192 46.892L69.444 44.768H68.22L67.98 46.832L67.14 46.844L67.392 44.792H66.264L66.312 44.132H67.476L67.704 42.212H66.432L66.468 41.528H67.776L68.004 39.512L68.868 39.488L68.616 41.504H69.828L70.056 39.536L70.944 39.524L70.704 41.48H71.76L71.676 42.176H70.62L70.38 44.072H71.52L71.46 44.732H70.32L70.056 46.832L69.192 46.892ZM68.304 44.108H69.516L69.756 42.2H68.532L68.304 44.108ZM99.192 46.892L99.444 44.768H98.22L97.98 46.832L97.14 46.844L97.392 44.792H96.264L96.312 44.132H97.476L97.704 42.212H96.432L96.468 41.528H97.776L98.004 39.512L98.868 39.488L98.616 41.504H99.828L100.056 39.536L100.944 39.524L100.704 41.48H101.76L101.676 42.176H100.62L100.38 44.072H101.52L101.46 44.732H100.32L100.056 46.832L99.192 46.892ZM98.304 44.108H99.516L99.756 42.2H98.532L98.304 44.108ZM105.192 46.892L105.444 44.768H104.22L103.98 46.832L103.14 46.844L103.392 44.792H102.264L102.312 44.132H103.476L103.704 42.212H102.432L102.468 41.528H103.776L104.004 39.512L104.868 39.488L104.616 41.504H105.828L106.056 39.536L106.944 39.524L106.704 41.48H107.76L107.676 42.176H106.62L106.38 44.072H107.52L107.46 44.732H106.32L106.056 46.832L105.192 46.892ZM104.304 44.108H105.516L105.756 42.2H104.532L104.304 44.108ZM111.192 46.892L111.444 44.768H110.22L109.98 46.832L109.14 46.844L109.392 44.792H108.264L108.312 44.132H109.476L109.704 42.212H108.432L108.468 41.528H109.776L110.004 39.512L110.868 39.488L110.616 41.504H111.828L112.056 39.536L112.944 39.524L112.704 41.48H113.76L113.676 42.176H112.62L112.38 44.072H113.52L113.46 44.732H112.32L112.056 46.832L111.192 46.892ZM110.304 44.108H111.516L111.756 42.2H110.532L110.304 44.108ZM141.192 46.892L141.444 44.768H140.22L139.98 46.832L139.14 46.844L139.392 44.792H138.264L138.312 44.132H139.476L139.704 42.212H138.432L138.468 41.528H139.776L140.004 39.512L140.868 39.488L140.616 41.504H141.828L142.056 39.536L142.944 39.524L142.704 41.48H143.76L143.676 42.176H142.62L142.38 44.072H143.52L143.46 44.732H142.32L142.056 46.832L141.192 46.892ZM140.304 44.108H141.516L141.756 42.2H140.532L140.304 44.108ZM147.192 46.892L147.444 44.768H146.22L145.98 46.832L145.14 46.844L145.392 44.792H144.264L144.312 44.132H145.476L145.704 42.212H144.432L144.468 41.528H145.776L146.004 39.512L146.868 39.488L146.616 41.504H147.828L148.056 39.536L148.944 39.524L148.704 41.48H149.76L149.676 42.176H148.62L148.38 44.072H149.52L149.46 44.732H148.32L148.056 46.832L147.192 46.892ZM146.304 44.108H147.516L147.756 42.2H146.532L146.304 44.108ZM153.192 46.892L153.444 44.768H152.22L151.98 46.832L151.14 46.844L151.392 44.792H150.264L150.312 44.132H151.476L151.704 42.212H150.432L150.468 41.528H151.776L152.004 39.512L152.868 39.488L152.616 41.504H153.828L154.056 39.536L154.944 39.524L154.704 41.48H155.76L155.676 42.176H154.62L154.38 44.072H155.52L155.46 44.732H154.32L154.056 46.832L153.192 46.892ZM152.304 44.108H153.516L153.756 42.2H152.532L152.304 44.108ZM183.192 46.892L183.444 44.768H182.22L181.98 46.832L181.14 46.844L181.392 44.792H180.264L180.312 44.132H181.476L181.704 42.212H180.432L180.468 41.528H181.776L182.004 39.512L182.868 39.488L182.616 41.504H183.828L184.056 39.536L184.944 39.524L184.704 41.48H185.76L185.676 42.176H184.62L184.38 44.072H185.52L185.46 44.732H184.32L184.056 46.832L183.192 46.892ZM182.304 44.108H183.516L183.756 42.2H182.532L182.304 44.108ZM189.192 46.892L189.444 44.768H188.22L187.98 46.832L187.14 46.844L187.392 44.792H186.264L186.312 44.132H187.476L187.704 42.212H186.432L186.468 41.528H187.776L188.004 39.512L188.868 39.488L188.616 41.504H189.828L190.056 39.536L190.944 39.524L190.704 41.48H191.76L191.676 42.176H190.62L190.38 44.072H191.52L191.46 44.732H190.32L190.056 46.832L189.192 46.892ZM188.304 44.108H189.516L189.756 42.2H188.532L188.304 44.108ZM195.192 46.892L195.444 44.768H194.22L193.98 46.832L193.14 46.844L193.392 44.792H192.264L192.312 44.132H193.476L193.704 42.212H192.432L192.468 41.528H193.776L194.004 39.512L194.868 39.488L194.616 41.504H195.828L196.056 39.536L196.944 39.524L196.704 41.48H197.76L197.676 42.176H196.62L196.38 44.072H197.52L197.46 44.732H196.32L196.056 46.832L195.192 46.892ZM194.304 44.108H195.516L195.756 42.2H194.532L194.304 44.108ZM201.192 46.892L201.444 44.768H200.22L199.98 46.832L199.14 46.844L199.392 44.792H198.264L198.312 44.132H199.476L199.704 42.212H198.432L198.468 41.528H199.776L200.004 39.512L200.868 39.488L200.616 41.504H201.828L202.056 39.536L202.944 39.524L202.704 41.48H203.76L203.676 42.176H202.62L202.38 44.072H203.52L203.46 44.732H202.32L202.056 46.832L201.192 46.892ZM200.304 44.108H201.516L201.756 42.2H200.532L200.304 44.108ZM231.192 46.892L231.444 44.768H230.22L229.98 46.832L229.14 46.844L229.392 44.792H228.264L228.312 44.132H229.476L229.704 42.212H228.432L228.468 41.528H229.776L230.004 39.512L230.868 39.488L230.616 41.504H231.828L232.056 39.536L232.944 39.524L232.704 41.48H233.76L233.676 42.176H232.62L232.38 44.072H233.52L233.46 44.732H232.32L232.056 46.832L231.192 46.892ZM230.304 44.108H231.516L231.756 42.2H230.532L230.304 44.108ZM237.192 46.892L237.444 44.768H236.22L235.98 46.832L235.14 46.844L235.392 44.792H234.264L234.312 44.132H235.476L235.704 42.212H234.432L234.468 41.528H235.776L236.004 39.512L236.868 39.488L236.616 41.504H237.828L238.056 39.536L238.944 39.524L238.704 41.48H239.76L239.676 42.176H238.62L238.38 44.072H239.52L239.46 44.732H238.32L238.056 46.832L237.192 46.892ZM236.304 44.108H237.516L237.756 42.2H236.532L236.304 44.108ZM243.192 46.892L243.444 44.768H242.22L241.98 46.832L241.14 46.844L241.392 44.792H240.264L240.312 44.132H241.476L241.704 42.212H240.432L240.468 41.528H241.776L242.004 39.512L242.868 39.488L242.616 41.504H243.828L244.056 39.536L244.944 39.524L244.704 41.48H245.76L245.676 42.176H244.62L244.38 44.072H245.52L245.46 44.732H244.32L244.056 46.832L243.192 46.892ZM242.304 44.108H243.516L243.756 42.2H242.532L242.304 44.108ZM249.192 46.892L249.444 44.768H248.22L247.98 46.832L247.14 46.844L247.392 44.792H246.264L246.312 44.132H247.476L247.704 42.212H246.432L246.468 41.528H247.776L248.004 39.512L248.868 39.488L248.616 41.504H249.828L250.056 39.536L250.944 39.524L250.704 41.48H251.76L251.676 42.176H250.62L250.38 44.072H251.52L251.46 44.732H250.32L250.056 46.832L249.192 46.892ZM248.304 44.108H249.516L249.756 42.2H248.532L248.304 44.108Z" fill="white"/>
<path d="M3.192 64.892L3.444 62.768H2.22L1.98 64.832L1.14 64.844L1.392 62.792H0.264L0.312 62.132H1.476L1.704 60.212H0.432L0.468 59.528H1.776L2.004 57.512L2.868 57.488L2.616 59.504H3.828L4.056 57.536L4.944 57.524L4.704 59.48H5.76L5.676 60.176H4.62L4.38 62.072H5.52L5.46 62.732H4.32L4.056 64.832L3.192 64.892ZM2.304 62.108H3.516L3.756 60.2H2.532L2.304 62.108ZM9.192 64.892L9.444 62.768H8.22L7.98 64.832L7.14 64.844L7.392 62.792H6.264L6.312 62.132H7.476L7.704 60.212H6.432L6.468 59.528H7.776L8.004 57.512L8.868 57.488L8.616 59.504H9.828L10.056 57.536L10.944 57.524L10.704 59.48H11.76L11.676 60.176H10.62L10.38 62.072H11.52L11.46 62.732H10.32L10.056 64.832L9.192 64.892ZM8.304 62.108H9.516L9.756 60.2H8.532L8.304 62.108ZM15.192 64.892L15.444 62.768H14.22L13.98 64.832L13.14 64.844L13.392 62.792H12.264L12.312 62.132H13.476L13.704 60.212H12.432L12.468 59.528H13.776L14.004 57.512L14.868 57.488L14.616 59.504H15.828L16.056 57.536L16.944 57.524L16.704 59.48H17.76L17.676 60.176H16.62L16.38 62.072H17.52L17.46 62.732H16.32L16.056 64.832L15.192 64.892ZM14.304 62.108H15.516L15.756 60.2H14.532L14.304 62.108ZM21.192 64.892L21.444 62.768H20.22L19.98 64.832L19.14 64.844L19.392 62.792H18.264L18.312 62.132H19.476L19.704 60.212H18.432L18.468 59.528H19.776L20.004 57.512L20.868 57.488L20.616 59.504H21.828L22.056 57.536L22.944 57.524L22.704 59.48H23.76L23.676 60.176H22.62L22.38 62.072H23.52L23.46 62.732H22.32L22.056 64.832L21.192 64.892ZM20.304 62.108H21.516L21.756 60.2H20.532L20.304 62.108ZM51.192 64.892L51.444 62.768H50.22L49.98 64.832L49.14 64.844L49.392 62.792H48.264L48.312 62.132H49.476L49.704 60.212H48.432L48.468 59.528H49.776L50.004 57.512L50.868 57.488L50.616 59.504H51.828L52.056 57.536L52.944 57.524L52.704 59.48H53.76L53.676 60.176H52.62L52.38 62.072H53.52L53.46 62.732H52.32L52.056 64.832L51.192 64.892ZM50.304 62.108H51.516L51.756 60.2H50.532L50.304 62.108ZM57.192 64.892L57.444 62.768H56.22L55.98 64.832L55.14 64.844L55.392 62.792H54.264L54.312 62.132H55.476L55.704 60.212H54.432L54.468 59.528H55.776L56.004 57.512L56.868 57.488L56.616 59.504H57.828L58.056 57.536L58.944 57.524L58.704 59.48H59.76L59.676 60.176H58.62L58.38 62.072H59.52L59.46 62.732H58.32L58.056 64.832L57.192 64.892ZM56.304 62.108H57.516L57.756 60.2H56.532L56.304 62.108ZM63.192 64.892L63.444 62.768H62.22L61.98 64.832L61.14 64.844L61.392 62.792H60.264L60.312 62.132H61.476L61.704 60.212H60.432L60.468 59.528H61.776L62.004 57.512L62.868 57.488L62.616 59.504H63.828L64.056 57.536L64.944 57.524L64.704 59.48H65.76L65.676 60.176H64.62L64.38 62.072H65.52L65.46 62.732H64.32L64.056 64.832L63.192 64.892ZM62.304 62.108H63.516L63.756 60.2H62.532L62.304 62.108ZM69.192 64.892L69.444 62.768H68.22L67.98 64.832L67.14 64.844L67.392 62.792H66.264L66.312 62.132H67.476L67.704 60.212H66.432L66.468 59.528H67.776L68.004 57.512L68.868 57.488L68.616 59.504H69.828L70.056 57.536L70.944 57.524L70.704 59.48H71.76L71.676 60.176H70.62L70.38 62.072H71.52L71.46 62.732H70.32L70.056 64.832L69.192 64.892ZM68.304 62.108H69.516L69.756 60.2H68.532L68.304 62.108ZM99.192 64.892L99.444 62.768H98.22L97.98 64.832L97.14 64.844L97.392 62.792H96.264L96.312 62.132H97.476L97.704 60.212H96.432L96.468 59.528H97.776L98.004 57.512L98.868 57.488L98.616 59.504H99.828L100.056 57.536L100.944 57.524L100.704 59.48H101.76L101.676 60.176H100.62L100.38 62.072H101.52L101.46 62.732H100.32L100.056 64.832L99.192 64.892ZM98.304 62.108H99.516L99.756 60.2H98.532L98.304 62.108ZM105.192 64.892L105.444 62.768H104.22L103.98 64.832L103.14 64.844L103.392 62.792H102.264L102.312 62.132H103.476L103.704 60.212H102.432L102.468 59.528H103.776L104.004 57.512L104.868 57.488L104.616 59.504H105.828L106.056 57.536L106.944 57.524L106.704 59.48H107.76L107.676 60.176H106.62L106.38 62.072H107.52L107.46 62.732H106.32L106.056 64.832L105.192 64.892ZM104.304 62.108H105.516L105.756 60.2H104.532L104.304 62.108ZM111.192 64.892L111.444 62.768H110.22L109.98 64.832L109.14 64.844L109.392 62.792H108.264L108.312 62.132H109.476L109.704 60.212H108.432L108.468 59.528H109.776L110.004 57.512L110.868 57.488L110.616 59.504H111.828L112.056 57.536L112.944 57.524L112.704 59.48H113.76L113.676 60.176H112.62L112.38 62.072H113.52L113.46 62.732H112.32L112.056 64.832L111.192 64.892ZM110.304 62.108H111.516L111.756 60.2H110.532L110.304 62.108ZM141.192 64.892L141.444 62.768H140.22L139.98 64.832L139.14 64.844L139.392 62.792H138.264L138.312 62.132H139.476L139.704 60.212H138.432L138.468 59.528H139.776L140.004 57.512L140.868 57.488L140.616 59.504H141.828L142.056 57.536L142.944 57.524L142.704 59.48H143.76L143.676 60.176H142.62L142.38 62.072H143.52L143.46 62.732H142.32L142.056 64.832L141.192 64.892ZM140.304 62.108H141.516L141.756 60.2H140.532L140.304 62.108ZM147.192 64.892L147.444 62.768H146.22L145.98 64.832L145.14 64.844L145.392 62.792H144.264L144.312 62.132H145.476L145.704 60.212H144.432L144.468 59.528H145.776L146.004 57.512L146.868 57.488L146.616 59.504H147.828L148.056 57.536L148.944 57.524L148.704 59.48H149.76L149.676 60.176H148.62L148.38 62.072H149.52L149.46 62.732H148.32L148.056 64.832L147.192 64.892ZM146.304 62.108H147.516L147.756 60.2H146.532L146.304 62.108ZM153.192 64.892L153.444 62.768H152.22L151.98 64.832L151.14 64.844L151.392 62.792H150.264L150.312 62.132H151.476L151.704 60.212H150.432L150.468 59.528H151.776L152.004 57.512L152.868 57.488L152.616 59.504H153.828L154.056 57.536L154.944 57.524L154.704 59.48H155.76L155.676 60.176H154.62L154.38 62.072H155.52L155.46 62.732H154.32L154.056 64.832L153.192 64.892ZM152.304 62.108H153.516L153.756 60.2H152.532L152.304 62.108ZM183.192 64.892L183.444 62.768H182.22L181.98 64.832L181.14 64.844L181.392 62.792H180.264L180.312 62.132H181.476L181.704 60.212H180.432L180.468 59.528H181.776L182.004 57.512L182.868 57.488L182.616 59.504H183.828L184.056 57.536L184.944 57.524L184.704 59.48H185.76L185.676 60.176H184.62L184.38 62.072H185.52L185.46 62.732H184.32L184.056 64.832L183.192 64.892ZM182.304 62.108H183.516L183.756 60.2H182.532L182.304 62.108ZM189.192 64.892L189.444 62.768H188.22L187.98 64.832L187.14 64.844L187.392 62.792H186.264L186.312 62.132H187.476L187.704 60.212H186.432L186.468 59.528H187.776L188.004 57.512L188.868 57.488L188.616 59.504H189.828L190.056 57.536L190.944 57.524L190.704 59.48H191.76L191.676 60.176H190.62L190.38 62.072H191.52L191.46 62.732H190.32L190.056 64.832L189.192 64.892ZM188.304 62.108H189.516L189.756 60.2H188.532L188.304 62.108ZM195.192 64.892L195.444 62.768H194.22L193.98 64.832L193.14 64.844L193.392 62.792H192.264L192.312 62.132H193.476L193.704 60.212H192.432L192.468 59.528H193.776L194.004 57.512L194.868 57.488L194.616 59.504H195.828L196.056 57.536L196.944 57.524L196.704 59.48H197.76L197.676 60.176H196.62L196.38 62.072H197.52L197.46 62.732H196.32L196.056 64.832L195.192 64.892ZM194.304 62.108H195.516L195.756 60.2H194.532L194.304 62.108ZM201.192 64.892L201.444 62.768H200.22L199.98 64.832L199.14 64.844L199.392 62.792H198.264L198.312 62.132H199.476L199.704 60.212H198.432L198.468 59.528H199.776L200.004 57.512L200.868 57.488L200.616 59.504H201.828L202.056 57.536L202.944 57.524L202.704 59.48H203.76L203.676 60.176H202.62L202.38 62.072H203.52L203.46 62.732H202.32L202.056 64.832L201.192 64.892ZM200.304 62.108H201.516L201.756 60.2H200.532L200.304 62.108ZM231.192 64.892L231.444 62.768H230.22L229.98 64.832L229.14 64.844L229.392 62.792H228.264L228.312 62.132H229.476L229.704 60.212H228.432L228.468 59.528H229.776L230.004 57.512L230.868 57.488L230.616 59.504H231.828L232.056 57.536L232.944 57.524L232.704 59.48H233.76L233.676 60.176H232.62L232.38 62.072H233.52L233.46 62.732H232.32L232.056 64.832L231.192 64.892ZM230.304 62.108H231.516L231.756 60.2H230.532L230.304 62.108ZM237.192 64.892L237.444 62.768H236.22L235.98 64.832L235.14 64.844L235.392 62.792H234.264L234.312 62.132H235.476L235.704 60.212H234.432L234.468 59.528H235.776L236.004 57.512L236.868 57.488L236.616 59.504H237.828L238.056 57.536L238.944 57.524L238.704 59.48H239.76L239.676 60.176H238.62L238.38 62.072H239.52L239.46 62.732H238.32L238.056 64.832L237.192 64.892ZM236.304 62.108H237.516L237.756 60.2H236.532L236.304 62.108ZM243.192 64.892L243.444 62.768H242.22L241.98 64.832L241.14 64.844L241.392 62.792H240.264L240.312 62.132H241.476L241.704 60.212H240.432L240.468 59.528H241.776L242.004 57.512L242.868 57.488L242.616 59.504H243.828L244.056 57.536L244.944 57.524L244.704 59.48H245.76L245.676 60.176H244.62L244.38 62.072H245.52L245.46 62.732H244.32L244.056 64.832L243.192 64.892ZM242.304 62.108H243.516L243.756 60.2H242.532L242.304 62.108ZM249.192 64.892L249.444 62.768H248.22L247.98 64.832L247.14 64.844L247.392 62.792H246.264L246.312 62.132H247.476L247.704 60.212H246.432L246.468 59.528H247.776L248.004 57.512L248.868 57.488L248.616 59.504H249.828L250.056 57.536L250.944 57.524L250.704 59.48H251.76L251.676 60.176H250.62L250.38 62.072H251.52L251.46 62.732H250.32L250.056 64.832L249.192 64.892ZM248.304 62.108H249.516L249.756 60.2H248.532L248.304 62.108Z" fill="white"/>
<path d="M3.192 82.892L3.444 80.768H2.22L1.98 82.832L1.14 82.844L1.392 80.792H0.264L0.312 80.132H1.476L1.704 78.212H0.432L0.468 77.528H1.776L2.004 75.512L2.868 75.488L2.616 77.504H3.828L4.056 75.536L4.944 75.524L4.704 77.48H5.76L5.676 78.176H4.62L4.38 80.072H5.52L5.46 80.732H4.32L4.056 82.832L3.192 82.892ZM2.304 80.108H3.516L3.756 78.2H2.532L2.304 80.108ZM9.192 82.892L9.444 80.768H8.22L7.98 82.832L7.14 82.844L7.392 80.792H6.264L6.312 80.132H7.476L7.704 78.212H6.432L6.468 77.528H7.776L8.004 75.512L8.868 75.488L8.616 77.504H9.828L10.056 75.536L10.944 75.524L10.704 77.48H11.76L11.676 78.176H10.62L10.38 80.072H11.52L11.46 80.732H10.32L10.056 82.832L9.192 82.892ZM8.304 80.108H9.516L9.756 78.2H8.532L8.304 80.108ZM15.192 82.892L15.444 80.768H14.22L13.98 82.832L13.14 82.844L13.392 80.792H12.264L12.312 80.132H13.476L13.704 78.212H12.432L12.468 77.528H13.776L14.004 75.512L14.868 75.488L14.616 77.504H15.828L16.056 75.536L16.944 75.524L16.704 77.48H17.76L17.676 78.176H16.62L16.38 80.072H17.52L17.46 80.732H16.32L16.056 82.832L15.192 82.892ZM14.304 80.108H15.516L15.756 78.2H14.532L14.304 80.108ZM21.192 82.892L21.444 80.768H20.22L19.98 82.832L19.14 82.844L19.392 80.792H18.264L18.312 80.132H19.476L19.704 78.212H18.432L18.468 77.528H19.776L20.004 75.512L20.868 75.488L20.616 77.504H21.828L22.056 75.536L22.944 75.524L22.704 77.48H23.76L23.676 78.176H22.62L22.38 80.072H23.52L23.46 80.732H22.32L22.056 82.832L21.192 82.892ZM20.304 80.108H21.516L21.756 78.2H20.532L20.304 80.108ZM27.192 82.892L27.444 80.768H26.22L25.98 82.832L25.14 82.844L25.392 80.792H24.264L24.312 80.132H25.476L25.704 78.212H24.432L24.468 77.528H25.776L26.004 75.512L26.868 75.488L26.616 77.504H27.828L28.056 75.536L28.944 75.524L28.704 77.48H29.76L29.676 78.176H28.62L28.38 80.072H29.52L29.46 80.732H28.32L28.056 82.832L27.192 82.892ZM26.304 80.108H27.516L27.756 78.2H26.532L26.304 80.108ZM33.192 82.892L33.444 80.768H32.22L31.98 82.832L31.14 82.844L31.392 80.792H30.264L30.312 80.132H31.476L31.704 78.212H30.432L30.468 77.528H31.776L32.004 75.512L32.868 75.488L32.616 77.504H33.828L34.056 75.536L34.944 75.524L34.704 77.48H35.76L35.676 78.176H34.62L34.38 80.072H35.52L35.46 80.732H34.32L34.056 82.832L33.192 82.892ZM32.304 80.108H33.516L33.756 78.2H32.532L32.304 80.108ZM39.192 82.892L39.444 80.768H38.22L37.98 82.832L37.14 82.844L37.392 80.792H36.264L36.312 80.132H37.476L37.704 78.212H36.432L36.468 77.528H37.776L38.004 75.512L38.868 75.488L38.616 77.504H39.828L40.056 75.536L40.944 75.524L40.704 77.48H41.76L41.676 78.176H40.62L40.38 80.072H41.52L41.46 80.732H40.32L40.056 82.832L39.192 82.892ZM38.304 80.108H39.516L39.756 78.2H38.532L38.304 80.108ZM45.192 82.892L45.444 80.768H44.22L43.98 82.832L43.14 82.844L43.392 80.792H42.264L42.312 80.132H43.476L43.704 78.212H42.432L42.468 77.528H43.776L44.004 75.512L44.868 75.488L44.616 77.504H45.828L46.056 75.536L46.944 75.524L46.704 77.48H47.76L47.676 78.176H46.62L46.38 80.072H47.52L47.46 80.732H46.32L46.056 82.832L45.192 82.892ZM44.304 80.108H45.516L45.756 78.2H44.532L44.304 80.108ZM51.192 82.892L51.444 80.768H50.22L49.98 82.832L49.14 82.844L49.392 80.792H48.264L48.312 80.132H49.476L49.704 78.212H48.432L48.468 77.528H49.776L50.004 75.512L50.868 75.488L50.616 77.504H51.828L52.056 75.536L52.944 75.524L52.704 77.48H53.76L53.676 78.176H52.62L52.38 80.072H53.52L53.46 80.732H52.32L52.056 82.832L51.192 82.892ZM50.304 80.108H51.516L51.756 78.2H50.532L50.304 80.108ZM57.192 82.892L57.444 80.768H56.22L55.98 82.832L55.14 82.844L55.392 80.792H54.264L54.312 80.132H55.476L55.704 78.212H54.432L54.468 77.528H55.776L56.004 75.512L56.868 75.488L56.616 77.504H57.828L58.056 75.536L58.944 75.524L58.704 77.48H59.76L59.676 78.176H58.62L58.38 80.072H59.52L59.46 80.732H58.32L58.056 82.832L57.192 82.892ZM56.304 80.108H57.516L57.756 78.2H56.532L56.304 80.108ZM63.192 82.892L63.444 80.768H62.22L61.98 82.832L61.14 82.844L61.392 80.792H60.264L60.312 80.132H61.476L61.704 78.212H60.432L60.468 77.528H61.776L62.004 75.512L62.868 75.488L62.616 77.504H63.828L64.056 75.536L64.944 75.524L64.704 77.48H65.76L65.676 78.176H64.62L64.38 80.072H65.52L65.46 80.732H64.32L64.056 82.832L63.192 82.892ZM62.304 80.108H63.516L63.756 78.2H62.532L62.304 80.108ZM69.192 82.892L69.444 80.768H68.22L67.98 82.832L67.14 82.844L67.392 80.792H66.264L66.312 80.132H67.476L67.704 78.212H66.432L66.468 77.528H67.776L68.004 75.512L68.868 75.488L68.616 77.504H69.828L70.056 75.536L70.944 75.524L70.704 77.48H71.76L71.676 78.176H70.62L70.38 80.072H71.52L71.46 80.732H70.32L70.056 82.832L69.192 82.892ZM68.304 80.108H69.516L69.756 78.2H68.532L68.304 80.108ZM99.192 82.892L99.444 80.768H98.22L97.98 82.832L97.14 82.844L97.392 80.792H96.264L96.312 80.132H97.476L97.704 78.212H96.432L96.468 77.528H97.776L98.004 75.512L98.868 75.488L98.616 77.504H99.828L100.056 75.536L100.944 75.524L100.704 77.48H101.76L101.676 78.176H100.62L100.38 80.072H101.52L101.46 80.732H100.32L100.056 82.832L99.192 82.892ZM98.304 80.108H99.516L99.756 78.2H98.532L98.304 80.108ZM105.192 82.892L105.444 80.768H104.22L103.98 82.832L103.14 82.844L103.392 80.792H102.264L102.312 80.132H103.476L103.704 78.212H102.432L102.468 77.528H103.776L104.004 75.512L104.868 75.488L104.616 77.504H105.828L106.056 75.536L106.944 75.524L106.704 77.48H107.76L107.676 78.176H106.62L106.38 80.072H107.52L107.46 80.732H106.32L106.056 82.832L105.192 82.892ZM104.304 80.108H105.516L105.756 78.2H104.532L104.304 80.108ZM111.192 82.892L111.444 80.768H110.22L109.98 82.832L109.14 82.844L109.392 80.792H108.264L108.312 80.132H109.476L109.704 78.212H108.432L108.468 77.528H109.776L110.004 75.512L110.868 75.488L110.616 77.504H111.828L112.056 75.536L112.944 75.524L112.704 77.48H113.76L113.676 78.176H112.62L112.38 80.072H113.52L113.46 80.732H112.32L112.056 82.832L111.192 82.892ZM110.304 80.108H111.516L111.756 78.2H110.532L110.304 80.108ZM141.192 82.892L141.444 80.768H140.22L139.98 82.832L139.14 82.844L139.392 80.792H138.264L138.312 80.132H139.476L139.704 78.212H138.432L138.468 77.528H139.776L140.004 75.512L140.868 75.488L140.616 77.504H141.828L142.056 75.536L142.944 75.524L142.704 77.48H143.76L143.676 78.176H142.62L142.38 80.072H143.52L143.46 80.732H142.32L142.056 82.832L141.192 82.892ZM140.304 80.108H141.516L141.756 78.2H140.532L140.304 80.108ZM147.192 82.892L147.444 80.768H146.22L145.98 82.832L145.14 82.844L145.392 80.792H144.264L144.312 80.132H145.476L145.704 78.212H144.432L144.468 77.528H145.776L146.004 75.512L146.868 75.488L146.616 77.504H147.828L148.056 75.536L148.944 75.524L148.704 77.48H149.76L149.676 78.176H148.62L148.38 80.072H149.52L149.46 80.732H148.32L148.056 82.832L147.192 82.892ZM146.304 80.108H147.516L147.756 78.2H146.532L146.304 80.108ZM153.192 82.892L153.444 80.768H152.22L151.98 82.832L151.14 82.844L151.392 80.792H150.264L150.312 80.132H151.476L151.704 78.212H150.432L150.468 77.528H151.776L152.004 75.512L152.868 75.488L152.616 77.504H153.828L154.056 75.536L154.944 75.524L154.704 77.48H155.76L155.676 78.176H154.62L154.38 80.072H155.52L155.46 80.732H154.32L154.056 82.832L153.192 82.892ZM152.304 80.108H153.516L153.756 78.2H152.532L152.304 80.108ZM183.192 82.892L183.444 80.768H182.22L181.98 82.832L181.14 82.844L181.392 80.792H180.264L180.312 80.132H181.476L181.704 78.212H180.432L180.468 77.528H181.776L182.004 75.512L182.868 75.488L182.616 77.504H183.828L184.056 75.536L184.944 75.524L184.704 77.48H185.76L185.676 78.176H184.62L184.38 80.072H185.52L185.46 80.732H184.32L184.056 82.832L183.192 82.892ZM182.304 80.108H183.516L183.756 78.2H182.532L182.304 80.108ZM189.192 82.892L189.444 80.768H188.22L187.98 82.832L187.14 82.844L187.392 80.792H186.264L186.312 80.132H187.476L187.704 78.212H186.432L186.468 77.528H187.776L188.004 75.512L188.868 75.488L188.616 77.504H189.828L190.056 75.536L190.944 75.524L190.704 77.48H191.76L191.676 78.176H190.62L190.38 80.072H191.52L191.46 80.732H190.32L190.056 82.832L189.192 82.892ZM188.304 80.108H189.516L189.756 78.2H188.532L188.304 80.108ZM195.192 82.892L195.444 80.768H194.22L193.98 82.832L193.14 82.844L193.392 80.792H192.264L192.312 80.132H193.476L193.704 78.212H192.432L192.468 77.528H193.776L194.004 75.512L194.868 75.488L194.616 77.504H195.828L196.056 75.536L196.944 75.524L196.704 77.48H197.76L197.676 78.176H196.62L196.38 80.072H197.52L197.46 80.732H196.32L196.056 82.832L195.192 82.892ZM194.304 80.108H195.516L195.756 78.2H194.532L194.304 80.108ZM201.192 82.892L201.444 80.768H200.22L199.98 82.832L199.14 82.844L199.392 80.792H198.264L198.312 80.132H199.476L199.704 78.212H198.432L198.468 77.528H199.776L200.004 75.512L200.868 75.488L200.616 77.504H201.828L202.056 75.536L202.944 75.524L202.704 77.48H203.76L203.676 78.176H202.62L202.38 80.072H203.52L203.46 80.732H202.32L202.056 82.832L201.192 82.892ZM200.304 80.108H201.516L201.756 78.2H200.532L200.304 80.108ZM207.192 82.892L207.444 80.768H206.22L205.98 82.832L205.14 82.844L205.392 80.792H204.264L204.312 80.132H205.476L205.704 78.212H204.432L204.468 77.528H205.776L206.004 75.512L206.868 75.488L206.616 77.504H207.828L208.056 75.536L208.944 75.524L208.704 77.48H209.76L209.676 78.176H208.62L208.38 80.072H209.52L209.46 80.732H208.32L208.056 82.832L207.192 82.892ZM206.304 80.108H207.516L207.756 78.2H206.532L206.304 80.108ZM213.192 82.892L213.444 80.768H212.22L211.98 82.832L211.14 82.844L211.392 80.792H210.264L210.312 80.132H211.476L211.704 78.212H210.432L210.468 77.528H211.776L212.004 75.512L212.868 75.488L212.616 77.504H213.828L214.056 75.536L214.944 75.524L214.704 77.48H215.76L215.676 78.176H214.62L214.38 80.072H215.52L215.46 80.732H214.32L214.056 82.832L213.192 82.892ZM212.304 80.108H213.516L213.756 78.2H212.532L212.304 80.108ZM219.192 82.892L219.444 80.768H218.22L217.98 82.832L217.14 82.844L217.392 80.792H216.264L216.312 80.132H217.476L217.704 78.212H216.432L216.468 77.528H217.776L218.004 75.512L218.868 75.488L218.616 77.504H219.828L220.056 75.536L220.944 75.524L220.704 77.48H221.76L221.676 78.176H220.62L220.38 80.072H221.52L221.46 80.732H220.32L220.056 82.832L219.192 82.892ZM218.304 80.108H219.516L219.756 78.2H218.532L218.304 80.108ZM225.192 82.892L225.444 80.768H224.22L223.98 82.832L223.14 82.844L223.392 80.792H222.264L222.312 80.132H223.476L223.704 78.212H222.432L222.468 77.528H223.776L224.004 75.512L224.868 75.488L224.616 77.504H225.828L226.056 75.536L226.944 75.524L226.704 77.48H227.76L227.676 78.176H226.62L226.38 80.072H227.52L227.46 80.732H226.32L226.056 82.832L225.192 82.892ZM224.304 80.108H225.516L225.756 78.2H224.532L224.304 80.108ZM231.192 82.892L231.444 80.768H230.22L229.98 82.832L229.14 82.844L229.392 80.792H228.264L228.312 80.132H229.476L229.704 78.212H228.432L228.468 77.528H229.776L230.004 75.512L230.868 75.488L230.616 77.504H231.828L232.056 75.536L232.944 75.524L232.704 77.48H233.76L233.676 78.176H232.62L232.38 80.072H233.52L233.46 80.732H232.32L232.056 82.832L231.192 82.892ZM230.304 80.108H231.516L231.756 78.2H230.532L230.304 80.108ZM237.192 82.892L237.444 80.768H236.22L235.98 82.832L235.14 82.844L235.392 80.792H234.264L234.312 80.132H235.476L235.704 78.212H234.432L234.468 77.528H235.776L236.004 75.512L236.868 75.488L236.616 77.504H237.828L238.056 75.536L238.944 75.524L238.704 77.48H239.76L239.676 78.176H238.62L238.38 80.072H239.52L239.46 80.732H238.32L238.056 82.832L237.192 82.892ZM236.304 80.108H237.516L237.756 78.2H236.532L236.304 80.108ZM243.192 82.892L243.444 80.768H242.22L241.98 82.832L241.14 82.844L241.392 80.792H240.264L240.312 80.132H241.476L241.704 78.212H240.432L240.468 77.528H241.776L242.004 75.512L242.868 75.488L242.616 77.504H243.828L244.056 75.536L244.944 75.524L244.704 77.48H245.76L245.676 78.176H244.62L244.38 80.072H245.52L245.46 80.732H244.32L244.056 82.832L243.192 82.892ZM242.304 80.108H243.516L243.756 78.2H242.532L242.304 80.108ZM249.192 82.892L249.444 80.768H248.22L247.98 82.832L247.14 82.844L247.392 80.792H246.264L246.312 80.132H247.476L247.704 78.212H246.432L246.468 77.528H247.776L248.004 75.512L248.868 75.488L248.616 77.504H249.828L250.056 75.536L250.944 75.524L250.704 77.48H251.76L251.676 78.176H250.62L250.38 80.072H251.52L251.46 80.732H250.32L250.056 82.832L249.192 82.892ZM248.304 80.108H249.516L249.756 78.2H248.532L248.304 80.108Z" fill="white"/>
<path d="M51.192 100.892L51.444 98.768H50.22L49.98 100.832L49.14 100.844L49.392 98.792H48.264L48.312 98.132H49.476L49.704 96.212H48.432L48.468 95.528H49.776L50.004 93.512L50.868 93.488L50.616 95.504H51.828L52.056 93.536L52.944 93.524L52.704 95.48H53.76L53.676 96.176H52.62L52.38 98.072H53.52L53.46 98.732H52.32L52.056 100.832L51.192 100.892ZM50.304 98.108H51.516L51.756 96.2H50.532L50.304 98.108ZM57.192 100.892L57.444 98.768H56.22L55.98 100.832L55.14 100.844L55.392 98.792H54.264L54.312 98.132H55.476L55.704 96.212H54.432L54.468 95.528H55.776L56.004 93.512L56.868 93.488L56.616 95.504H57.828L58.056 93.536L58.944 93.524L58.704 95.48H59.76L59.676 96.176H58.62L58.38 98.072H59.52L59.46 98.732H58.32L58.056 100.832L57.192 100.892ZM56.304 98.108H57.516L57.756 96.2H56.532L56.304 98.108ZM63.192 100.892L63.444 98.768H62.22L61.98 100.832L61.14 100.844L61.392 98.792H60.264L60.312 98.132H61.476L61.704 96.212H60.432L60.468 95.528H61.776L62.004 93.512L62.868 93.488L62.616 95.504H63.828L64.056 93.536L64.944 93.524L64.704 95.48H65.76L65.676 96.176H64.62L64.38 98.072H65.52L65.46 98.732H64.32L64.056 100.832L63.192 100.892ZM62.304 98.108H63.516L63.756 96.2H62.532L62.304 98.108ZM69.192 100.892L69.444 98.768H68.22L67.98 100.832L67.14 100.844L67.392 98.792H66.264L66.312 98.132H67.476L67.704 96.212H66.432L66.468 95.528H67.776L68.004 93.512L68.868 93.488L68.616 95.504H69.828L70.056 93.536L70.944 93.524L70.704 95.48H71.76L71.676 96.176H70.62L70.38 98.072H71.52L71.46 98.732H70.32L70.056 100.832L69.192 100.892ZM68.304 98.108H69.516L69.756 96.2H68.532L68.304 98.108ZM99.192 100.892L99.444 98.768H98.22L97.98 100.832L97.14 100.844L97.392 98.792H96.264L96.312 98.132H97.476L97.704 96.212H96.432L96.468 95.528H97.776L98.004 93.512L98.868 93.488L98.616 95.504H99.828L100.056 93.536L100.944 93.524L100.704 95.48H101.76L101.676 96.176H100.62L100.38 98.072H101.52L101.46 98.732H100.32L100.056 100.832L99.192 100.892ZM98.304 98.108H99.516L99.756 96.2H98.532L98.304 98.108ZM105.192 100.892L105.444 98.768H104.22L103.98 100.832L103.14 100.844L103.392 98.792H102.264L102.312 98.132H103.476L103.704 96.212H102.432L102.468 95.528H103.776L104.004 93.512L104.868 93.488L104.616 95.504H105.828L106.056 93.536L106.944 93.524L106.704 95.48H107.76L107.676 96.176H106.62L106.38 98.072H107.52L107.46 98.732H106.32L106.056 100.832L105.192 100.892ZM104.304 98.108H105.516L105.756 96.2H104.532L104.304 98.108ZM111.192 100.892L111.444 98.768H110.22L109.98 100.832L109.14 100.844L109.392 98.792H108.264L108.312 98.132H109.476L109.704 96.212H108.432L108.468 95.528H109.776L110.004 93.512L110.868 93.488L110.616 95.504H111.828L112.056 93.536L112.944 93.524L112.704 95.48H113.76L113.676 96.176H112.62L112.38 98.072H113.52L113.46 98.732H112.32L112.056 100.832L111.192 100.892ZM110.304 98.108H111.516L111.756 96.2H110.532L110.304 98.108ZM141.192 100.892L141.444 98.768H140.22L139.98 100.832L139.14 100.844L139.392 98.792H138.264L138.312 98.132H139.476L139.704 96.212H138.432L138.468 95.528H139.776L140.004 93.512L140.868 93.488L140.616 95.504H141.828L142.056 93.536L142.944 93.524L142.704 95.48H143.76L143.676 96.176H142.62L142.38 98.072H143.52L143.46 98.732H142.32L142.056 100.832L141.192 100.892ZM140.304 98.108H141.516L141.756 96.2H140.532L140.304 98.108ZM147.192 100.892L147.444 98.768H146.22L145.98 100.832L145.14 100.844L145.392 98.792H144.264L144.312 98.132H145.476L145.704 96.212H144.432L144.468 95.528H145.776L146.004 93.512L146.868 93.488L146.616 95.504H147.828L148.056 93.536L148.944 93.524L148.704 95.48H149.76L149.676 96.176H148.62L148.38 98.072H149.52L149.46 98.732H148.32L148.056 100.832L147.192 100.892ZM146.304 98.108H147.516L147.756 96.2H146.532L146.304 98.108ZM153.192 100.892L153.444 98.768H152.22L151.98 100.832L151.14 100.844L151.392 98.792H150.264L150.312 98.132H151.476L151.704 96.212H150.432L150.468 95.528H151.776L152.004 93.512L152.868 93.488L152.616 95.504H153.828L154.056 93.536L154.944 93.524L154.704 95.48H155.76L155.676 96.176H154.62L154.38 98.072H155.52L155.46 98.732H154.32L154.056 100.832L153.192 100.892ZM152.304 98.108H153.516L153.756 96.2H152.532L152.304 98.108ZM231.192 100.892L231.444 98.768H230.22L229.98 100.832L229.14 100.844L229.392 98.792H228.264L228.312 98.132H229.476L229.704 96.212H228.432L228.468 95.528H229.776L230.004 93.512L230.868 93.488L230.616 95.504H231.828L232.056 93.536L232.944 93.524L232.704 95.48H233.76L233.676 96.176H232.62L232.38 98.072H233.52L233.46 98.732H232.32L232.056 100.832L231.192 100.892ZM230.304 98.108H231.516L231.756 96.2H230.532L230.304 98.108ZM237.192 100.892L237.444 98.768H236.22L235.98 100.832L235.14 100.844L235.392 98.792H234.264L234.312 98.132H235.476L235.704 96.212H234.432L234.468 95.528H235.776L236.004 93.512L236.868 93.488L236.616 95.504H237.828L238.056 93.536L238.944 93.524L238.704 95.48H239.76L239.676 96.176H238.62L238.38 98.072H239.52L239.46 98.732H238.32L238.056 100.832L237.192 100.892ZM236.304 98.108H237.516L237.756 96.2H236.532L236.304 98.108ZM243.192 100.892L243.444 98.768H242.22L241.98 100.832L241.14 100.844L241.392 98.792H240.264L240.312 98.132H241.476L241.704 96.212H240.432L240.468 95.528H241.776L242.004 93.512L242.868 93.488L242.616 95.504H243.828L244.056 93.536L244.944 93.524L244.704 95.48H245.76L245.676 96.176H244.62L244.38 98.072H245.52L245.46 98.732H244.32L244.056 100.832L243.192 100.892ZM242.304 98.108H243.516L243.756 96.2H242.532L242.304 98.108ZM249.192 100.892L249.444 98.768H248.22L247.98 100.832L247.14 100.844L247.392 98.792H246.264L246.312 98.132H247.476L247.704 96.212H246.432L246.468 95.528H247.776L248.004 93.512L248.868 93.488L248.616 95.504H249.828L250.056 93.536L250.944 93.524L250.704 95.48H251.76L251.676 96.176H250.62L250.38 98.072H251.52L251.46 98.732H250.32L250.056 100.832L249.192 100.892ZM248.304 98.108H249.516L249.756 96.2H248.532L248.304 98.108Z" fill="white"/>
<path d="M51.192 118.892L51.444 116.768H50.22L49.98 118.832L49.14 118.844L49.392 116.792H48.264L48.312 116.132H49.476L49.704 114.212H48.432L48.468 113.528H49.776L50.004 111.512L50.868 111.488L50.616 113.504H51.828L52.056 111.536L52.944 111.524L52.704 113.48H53.76L53.676 114.176H52.62L52.38 116.072H53.52L53.46 116.732H52.32L52.056 118.832L51.192 118.892ZM50.304 116.108H51.516L51.756 114.2H50.532L50.304 116.108ZM57.192 118.892L57.444 116.768H56.22L55.98 118.832L55.14 118.844L55.392 116.792H54.264L54.312 116.132H55.476L55.704 114.212H54.432L54.468 113.528H55.776L56.004 111.512L56.868 111.488L56.616 113.504H57.828L58.056 111.536L58.944 111.524L58.704 113.48H59.76L59.676 114.176H58.62L58.38 116.072H59.52L59.46 116.732H58.32L58.056 118.832L57.192 118.892ZM56.304 116.108H57.516L57.756 114.2H56.532L56.304 116.108ZM63.192 118.892L63.444 116.768H62.22L61.98 118.832L61.14 118.844L61.392 116.792H60.264L60.312 116.132H61.476L61.704 114.212H60.432L60.468 113.528H61.776L62.004 111.512L62.868 111.488L62.616 113.504H63.828L64.056 111.536L64.944 111.524L64.704 113.48H65.76L65.676 114.176H64.62L64.38 116.072H65.52L65.46 116.732H64.32L64.056 118.832L63.192 118.892ZM62.304 116.108H63.516L63.756 114.2H62.532L62.304 116.108ZM69.192 118.892L69.444 116.768H68.22L67.98 118.832L67.14 118.844L67.392 116.792H66.264L66.312 116.132H67.476L67.704 114.212H66.432L66.468 113.528H67.776L68.004 111.512L68.868 111.488L68.616 113.504H69.828L70.056 111.536L70.944 111.524L70.704 113.48H71.76L71.676 114.176H70.62L70.38 116.072H71.52L71.46 116.732H70.32L70.056 118.832L69.192 118.892ZM68.304 116.108H69.516L69.756 114.2H68.532L68.304 116.108ZM99.192 118.892L99.444 116.768H98.22L97.98 118.832L97.14 118.844L97.392 116.792H96.264L96.312 116.132H97.476L97.704 114.212H96.432L96.468 113.528H97.776L98.004 111.512L98.868 111.488L98.616 113.504H99.828L100.056 111.536L100.944 111.524L100.704 113.48H101.76L101.676 114.176H100.62L100.38 116.072H101.52L101.46 116.732H100.32L100.056 118.832L99.192 118.892ZM98.304 116.108H99.516L99.756 114.2H98.532L98.304 116.108ZM105.192 118.892L105.444 116.768H104.22L103.98 118.832L103.14 118.844L103.392 116.792H102.264L102.312 116.132H103.476L103.704 114.212H102.432L102.468 113.528H103.776L104.004 111.512L104.868 111.488L104.616 113.504H105.828L106.056 111.536L106.944 111.524L106.704 113.48H107.76L107.676 114.176H106.62L106.38 116.072H107.52L107.46 116.732H106.32L106.056 118.832L105.192 118.892ZM104.304 116.108H105.516L105.756 114.2H104.532L104.304 116.108ZM111.192 118.892L111.444 116.768H110.22L109.98 118.832L109.14 118.844L109.392 116.792H108.264L108.312 116.132H109.476L109.704 114.212H108.432L108.468 113.528H109.776L110.004 111.512L110.868 111.488L110.616 113.504H111.828L112.056 111.536L112.944 111.524L112.704 113.48H113.76L113.676 114.176H112.62L112.38 116.072H113.52L113.46 116.732H112.32L112.056 118.832L111.192 118.892ZM110.304 116.108H111.516L111.756 114.2H110.532L110.304 116.108ZM141.192 118.892L141.444 116.768H140.22L139.98 118.832L139.14 118.844L139.392 116.792H138.264L138.312 116.132H139.476L139.704 114.212H138.432L138.468 113.528H139.776L140.004 111.512L140.868 111.488L140.616 113.504H141.828L142.056 111.536L142.944 111.524L142.704 113.48H143.76L143.676 114.176H142.62L142.38 116.072H143.52L143.46 116.732H142.32L142.056 118.832L141.192 118.892ZM140.304 116.108H141.516L141.756 114.2H140.532L140.304 116.108ZM147.192 118.892L147.444 116.768H146.22L145.98 118.832L145.14 118.844L145.392 116.792H144.264L144.312 116.132H145.476L145.704 114.212H144.432L144.468 113.528H145.776L146.004 111.512L146.868 111.488L146.616 113.504H147.828L148.056 111.536L148.944 111.524L148.704 113.48H149.76L149.676 114.176H148.62L148.38 116.072H149.52L149.46 116.732H148.32L148.056 118.832L147.192 118.892ZM146.304 116.108H147.516L147.756 114.2H146.532L146.304 116.108ZM153.192 118.892L153.444 116.768H152.22L151.98 118.832L151.14 118.844L151.392 116.792H150.264L150.312 116.132H151.476L151.704 114.212H150.432L150.468 113.528H151.776L152.004 111.512L152.868 111.488L152.616 113.504H153.828L154.056 111.536L154.944 111.524L154.704 113.48H155.76L155.676 114.176H154.62L154.38 116.072H155.52L155.46 116.732H154.32L154.056 118.832L153.192 118.892ZM152.304 116.108H153.516L153.756 114.2H152.532L152.304 116.108ZM231.192 118.892L231.444 116.768H230.22L229.98 118.832L229.14 118.844L229.392 116.792H228.264L228.312 116.132H229.476L229.704 114.212H228.432L228.468 113.528H229.776L230.004 111.512L230.868 111.488L230.616 113.504H231.828L232.056 111.536L232.944 111.524L232.704 113.48H233.76L233.676 114.176H232.62L232.38 116.072H233.52L233.46 116.732H232.32L232.056 118.832L231.192 118.892ZM230.304 116.108H231.516L231.756 114.2H230.532L230.304 116.108ZM237.192 118.892L237.444 116.768H236.22L235.98 118.832L235.14 118.844L235.392 116.792H234.264L234.312 116.132H235.476L235.704 114.212H234.432L234.468 113.528H235.776L236.004 111.512L236.868 111.488L236.616 113.504H237.828L238.056 111.536L238.944 111.524L238.704 113.48H239.76L239.676 114.176H238.62L238.38 116.072H239.52L239.46 116.732H238.32L238.056 118.832L237.192 118.892ZM236.304 116.108H237.516L237.756 114.2H236.532L236.304 116.108ZM243.192 118.892L243.444 116.768H242.22L241.98 118.832L241.14 118.844L241.392 116.792H240.264L240.312 116.132H241.476L241.704 114.212H240.432L240.468 113.528H241.776L242.004 111.512L242.868 111.488L242.616 113.504H243.828L244.056 111.536L244.944 111.524L244.704 113.48H245.76L245.676 114.176H244.62L244.38 116.072H245.52L245.46 116.732H244.32L244.056 118.832L243.192 118.892ZM242.304 116.108H243.516L243.756 114.2H242.532L242.304 116.108ZM249.192 118.892L249.444 116.768H248.22L247.98 118.832L247.14 118.844L247.392 116.792H246.264L246.312 116.132H247.476L247.704 114.212H246.432L246.468 113.528H247.776L248.004 111.512L248.868 111.488L248.616 113.504H249.828L250.056 111.536L250.944 111.524L250.704 113.48H251.76L251.676 114.176H250.62L250.38 116.072H251.52L251.46 116.732H250.32L250.056 118.832L249.192 118.892ZM248.304 116.108H249.516L249.756 114.2H248.532L248.304 116.108Z" fill="white"/>
<path d="M51.192 136.892L51.444 134.768H50.22L49.98 136.832L49.14 136.844L49.392 134.792H48.264L48.312 134.132H49.476L49.704 132.212H48.432L48.468 131.528H49.776L50.004 129.512L50.868 129.488L50.616 131.504H51.828L52.056 129.536L52.944 129.524L52.704 131.48H53.76L53.676 132.176H52.62L52.38 134.072H53.52L53.46 134.732H52.32L52.056 136.832L51.192 136.892ZM50.304 134.108H51.516L51.756 132.2H50.532L50.304 134.108ZM57.192 136.892L57.444 134.768H56.22L55.98 136.832L55.14 136.844L55.392 134.792H54.264L54.312 134.132H55.476L55.704 132.212H54.432L54.468 131.528H55.776L56.004 129.512L56.868 129.488L56.616 131.504H57.828L58.056 129.536L58.944 129.524L58.704 131.48H59.76L59.676 132.176H58.62L58.38 134.072H59.52L59.46 134.732H58.32L58.056 136.832L57.192 136.892ZM56.304 134.108H57.516L57.756 132.2H56.532L56.304 134.108ZM63.192 136.892L63.444 134.768H62.22L61.98 136.832L61.14 136.844L61.392 134.792H60.264L60.312 134.132H61.476L61.704 132.212H60.432L60.468 131.528H61.776L62.004 129.512L62.868 129.488L62.616 131.504H63.828L64.056 129.536L64.944 129.524L64.704 131.48H65.76L65.676 132.176H64.62L64.38 134.072H65.52L65.46 134.732H64.32L64.056 136.832L63.192 136.892ZM62.304 134.108H63.516L63.756 132.2H62.532L62.304 134.108ZM69.192 136.892L69.444 134.768H68.22L67.98 136.832L67.14 136.844L67.392 134.792H66.264L66.312 134.132H67.476L67.704 132.212H66.432L66.468 131.528H67.776L68.004 129.512L68.868 129.488L68.616 131.504H69.828L70.056 129.536L70.944 129.524L70.704 131.48H71.76L71.676 132.176H70.62L70.38 134.072H71.52L71.46 134.732H70.32L70.056 136.832L69.192 136.892ZM68.304 134.108H69.516L69.756 132.2H68.532L68.304 134.108ZM99.192 136.892L99.444 134.768H98.22L97.98 136.832L97.14 136.844L97.392 134.792H96.264L96.312 134.132H97.476L97.704 132.212H96.432L96.468 131.528H97.776L98.004 129.512L98.868 129.488L98.616 131.504H99.828L100.056 129.536L100.944 129.524L100.704 131.48H101.76L101.676 132.176H100.62L100.38 134.072H101.52L101.46 134.732H100.32L100.056 136.832L99.192 136.892ZM98.304 134.108H99.516L99.756 132.2H98.532L98.304 134.108ZM105.192 136.892L105.444 134.768H104.22L103.98 136.832L103.14 136.844L103.392 134.792H102.264L102.312 134.132H103.476L103.704 132.212H102.432L102.468 131.528H103.776L104.004 129.512L104.868 129.488L104.616 131.504H105.828L106.056 129.536L106.944 129.524L106.704 131.48H107.76L107.676 132.176H106.62L106.38 134.072H107.52L107.46 134.732H106.32L106.056 136.832L105.192 136.892ZM104.304 134.108H105.516L105.756 132.2H104.532L104.304 134.108ZM111.192 136.892L111.444 134.768H110.22L109.98 136.832L109.14 136.844L109.392 134.792H108.264L108.312 134.132H109.476L109.704 132.212H108.432L108.468 131.528H109.776L110.004 129.512L110.868 129.488L110.616 131.504H111.828L112.056 129.536L112.944 129.524L112.704 131.48H113.76L113.676 132.176H112.62L112.38 134.072H113.52L113.46 134.732H112.32L112.056 136.832L111.192 136.892ZM110.304 134.108H111.516L111.756 132.2H110.532L110.304 134.108ZM117.192 136.892L117.444 134.768H116.22L115.98 136.832L115.14 136.844L115.392 134.792H114.264L114.312 134.132H115.476L115.704 132.212H114.432L114.468 131.528H115.776L116.004 129.512L116.868 129.488L116.616 131.504H117.828L118.056 129.536L118.944 129.524L118.704 131.48H119.76L119.676 132.176H118.62L118.38 134.072H119.52L119.46 134.732H118.32L118.056 136.832L117.192 136.892ZM116.304 134.108H117.516L117.756 132.2H116.532L116.304 134.108ZM123.192 136.892L123.444 134.768H122.22L121.98 136.832L121.14 136.844L121.392 134.792H120.264L120.312 134.132H121.476L121.704 132.212H120.432L120.468 131.528H121.776L122.004 129.512L122.868 129.488L122.616 131.504H123.828L124.056 129.536L124.944 129.524L124.704 131.48H125.76L125.676 132.176H124.62L124.38 134.072H125.52L125.46 134.732H124.32L124.056 136.832L123.192 136.892ZM122.304 134.108H123.516L123.756 132.2H122.532L122.304 134.108ZM129.192 136.892L129.444 134.768H128.22L127.98 136.832L127.14 136.844L127.392 134.792H126.264L126.312 134.132H127.476L127.704 132.212H126.432L126.468 131.528H127.776L128.004 129.512L128.868 129.488L128.616 131.504H129.828L130.056 129.536L130.944 129.524L130.704 131.48H131.76L131.676 132.176H130.62L130.38 134.072H131.52L131.46 134.732H130.32L130.056 136.832L129.192 136.892ZM128.304 134.108H129.516L129.756 132.2H128.532L128.304 134.108ZM135.192 136.892L135.444 134.768H134.22L133.98 136.832L133.14 136.844L133.392 134.792H132.264L132.312 134.132H133.476L133.704 132.212H132.432L132.468 131.528H133.776L134.004 129.512L134.868 129.488L134.616 131.504H135.828L136.056 129.536L136.944 129.524L136.704 131.48H137.76L137.676 132.176H136.62L136.38 134.072H137.52L137.46 134.732H136.32L136.056 136.832L135.192 136.892ZM134.304 134.108H135.516L135.756 132.2H134.532L134.304 134.108ZM141.192 136.892L141.444 134.768H140.22L139.98 136.832L139.14 136.844L139.392 134.792H138.264L138.312 134.132H139.476L139.704 132.212H138.432L138.468 131.528H139.776L140.004 129.512L140.868 129.488L140.616 131.504H141.828L142.056 129.536L142.944 129.524L142.704 131.48H143.76L143.676 132.176H142.62L142.38 134.072H143.52L143.46 134.732H142.32L142.056 136.832L141.192 136.892ZM140.304 134.108H141.516L141.756 132.2H140.532L140.304 134.108ZM147.192 136.892L147.444 134.768H146.22L145.98 136.832L145.14 136.844L145.392 134.792H144.264L144.312 134.132H145.476L145.704 132.212H144.432L144.468 131.528H145.776L146.004 129.512L146.868 129.488L146.616 131.504H147.828L148.056 129.536L148.944 129.524L148.704 131.48H149.76L149.676 132.176H148.62L148.38 134.072H149.52L149.46 134.732H148.32L148.056 136.832L147.192 136.892ZM146.304 134.108H147.516L147.756 132.2H146.532L146.304 134.108ZM153.192 136.892L153.444 134.768H152.22L151.98 136.832L151.14 136.844L151.392 134.792H150.264L150.312 134.132H151.476L151.704 132.212H150.432L150.468 131.528H151.776L152.004 129.512L152.868 129.488L152.616 131.504H153.828L154.056 129.536L154.944 129.524L154.704 131.48H155.76L155.676 132.176H154.62L154.38 134.072H155.52L155.46 134.732H154.32L154.056 136.832L153.192 136.892ZM152.304 134.108H153.516L153.756 132.2H152.532L152.304 134.108ZM231.192 136.892L231.444 134.768H230.22L229.98 136.832L229.14 136.844L229.392 134.792H228.264L228.312 134.132H229.476L229.704 132.212H228.432L228.468 131.528H229.776L230.004 129.512L230.868 129.488L230.616 131.504H231.828L232.056 129.536L232.944 129.524L232.704 131.48H233.76L233.676 132.176H232.62L232.38 134.072H233.52L233.46 134.732H232.32L232.056 136.832L231.192 136.892ZM230.304 134.108H231.516L231.756 132.2H230.532L230.304 134.108ZM237.192 136.892L237.444 134.768H236.22L235.98 136.832L235.14 136.844L235.392 134.792H234.264L234.312 134.132H235.476L235.704 132.212H234.432L234.468 131.528H235.776L236.004 129.512L236.868 129.488L236.616 131.504H237.828L238.056 129.536L238.944 129.524L238.704 131.48H239.76L239.676 132.176H238.62L238.38 134.072H239.52L239.46 134.732H238.32L238.056 136.832L237.192 136.892ZM236.304 134.108H237.516L237.756 132.2H236.532L236.304 134.108ZM243.192 136.892L243.444 134.768H242.22L241.98 136.832L241.14 136.844L241.392 134.792H240.264L240.312 134.132H241.476L241.704 132.212H240.432L240.468 131.528H241.776L242.004 129.512L242.868 129.488L242.616 131.504H243.828L244.056 129.536L244.944 129.524L244.704 131.48H245.76L245.676 132.176H244.62L244.38 134.072H245.52L245.46 134.732H244.32L244.056 136.832L243.192 136.892ZM242.304 134.108H243.516L243.756 132.2H242.532L242.304 134.108ZM249.192 136.892L249.444 134.768H248.22L247.98 136.832L247.14 136.844L247.392 134.792H246.264L246.312 134.132H247.476L247.704 132.212H246.432L246.468 131.528H247.776L248.004 129.512L248.868 129.488L248.616 131.504H249.828L250.056 129.536L250.944 129.524L250.704 131.48H251.76L251.676 132.176H250.62L250.38 134.072H251.52L251.46 134.732H250.32L250.056 136.832L249.192 136.892ZM248.304 134.108H249.516L249.756 132.2H248.532L248.304 134.108Z" fill="white"/>
</g>
<defs>
<clipPath id="clip0_559_16">
<rect width="252" height="139" fill="white"/>
</clipPath>
</defs>
</svg>
