<?xml version="1.0" encoding="utf-8"?>
<!-- Generator: Adobe Illustrator 26.3.1, SVG Export Plug-In . SVG Version: 6.00 Build 0)  -->
<svg version="1.1" id="Layer_1" xmlns="http://www.w3.org/2000/svg" xmlns:xlink="http://www.w3.org/1999/xlink" x="0px" y="0px"
	 viewBox="0 0 50 50" style="enable-background:new 0 0 50 50;" xml:space="preserve">
<style type="text/css">
	.st0{fill-rule:evenodd;clip-rule:evenodd;}
</style>
<g>
	<path d="M46,29.3c-1.2,0.3-2.3,0.5-3.5,0.5c-7.9,0-14.3-6.4-14.3-14.3c0-1.3,0.2-2.4,0.5-3.5c-8.8,0.4-15.8,7.7-15.8,16.6
		c0,9.1,7.5,16.6,16.6,16.6C38.3,45.2,45.6,38.1,46,29.3z"/>
	<path class="st0" d="M6.9,17.3c0.7,0,1.2,0.5,1.2,1.2v3.6c0,0.7-0.5,1.2-1.2,1.2s-1.2-0.5-1.2-1.2v-3.6C5.7,17.8,6.2,17.3,6.9,17.3
		z"/>
	<path class="st0" d="M3.8,20.2c0-0.7,0.5-1.2,1.2-1.2h3.6c0.7,0,1.2,0.5,1.2,1.2c0,0.7-0.5,1.2-1.2,1.2H5
		C4.4,21.5,3.8,20.9,3.8,20.2z"/>
	<path class="st0" d="M14,4.8c0.7,0,1.2,0.5,1.2,1.2v4.8c0,0.7-0.5,1.2-1.2,1.2s-1.2-0.5-1.2-1.2V5.9C12.8,5.4,13.3,4.8,14,4.8z"/>
	<path class="st0" d="M10.5,8.4c0-0.7,0.5-1.2,1.2-1.2h4.8c0.7,0,1.2,0.5,1.2,1.2s-0.5,1.2-1.2,1.2h-4.8C10.9,9.5,10.5,9.1,10.5,8.4
		z"/>
</g>
</svg>