<svg width="30" height="31" viewBox="0 0 30 31" fill="none" xmlns="http://www.w3.org/2000/svg">
<g clip-path="url(#clip0_212_383)">
<path fill-rule="evenodd" clip-rule="evenodd" d="M9.06234 3.4849C10.6857 3.12412 12.6551 3.00012 14.9998 3.00012C17.3444 3.00012 19.3138 3.12412 20.9371 3.4849C22.5748 3.84883 23.9358 4.47012 24.9828 5.5171C26.0298 6.56407 26.651 7.92515 27.015 9.56271C27.3758 11.1861 27.4998 13.1555 27.4998 15.5001C27.4998 17.8447 27.3758 19.8141 27.015 21.4375C26.651 23.0751 26.0298 24.4361 24.9828 25.4831C23.9358 26.5301 22.5748 27.1514 20.9371 27.5154C19.3138 27.8761 17.3444 28.0001 14.9998 28.0001C12.6551 28.0001 10.6857 27.8761 9.06234 27.5154C7.42478 27.1514 6.06371 26.5301 5.01673 25.4831C3.96976 24.4361 3.34847 23.0751 2.98453 21.4375C2.62376 19.8141 2.49976 17.8447 2.49976 15.5001C2.49976 13.1555 2.62376 11.1861 2.98453 9.56271C3.34847 7.92515 3.96976 6.56407 5.01673 5.5171C6.06371 4.47012 7.42478 3.84883 9.06234 3.4849ZM14.9998 8.00012C12.2383 8.00012 9.99976 10.2387 9.99976 13.0001C9.99976 15.7615 12.2383 18.0001 14.9998 18.0001C17.7611 18.0001 19.9998 15.7615 19.9998 13.0001C19.9998 10.2387 17.7611 8.00012 14.9998 8.00012ZM22.9716 22.1179C23.4126 22.837 23.2566 23.7876 22.5459 24.242C21.8996 24.6553 21.1445 24.9083 20.3946 25.0749C19.04 25.3759 17.2871 25.5001 14.9995 25.5001C12.712 25.5001 10.9591 25.3759 9.60452 25.0749C8.86871 24.9114 8.12732 24.665 7.48889 24.2651C6.76534 23.812 6.60629 22.8484 7.05818 22.124C7.57854 21.2899 8.29571 20.6345 9.26078 20.1681C10.725 19.4606 12.6444 19.2501 14.9993 19.2501C17.3461 19.2501 19.2634 19.4436 20.7256 20.131C21.7156 20.5964 22.4463 21.2613 22.9716 22.1179Z" fill="black"/>
</g>
<defs>
<clipPath id="clip0_212_383">
<rect width="30" height="30" fill="white" transform="translate(0 0.5)"/>
</clipPath>
</defs>
</svg>
