<svg width="15" height="14" viewBox="0 0 15 14" fill="none" xmlns="http://www.w3.org/2000/svg">
<g clip-path="url(#clip0_430_77)">
<path d="M14.1036 10.0281L9.50577 1.274C9.0916 0.485917 8.32627 0 7.49794 0C6.6696 0 5.90369 0.485917 5.48952 1.274L0.811186 10.178C0.607046 10.5716 0.500488 11.0086 0.500488 11.452C0.500488 11.8954 0.607046 12.3324 0.811186 12.726C1.22535 13.5141 1.99069 14 2.81902 14H12.1815C13.4619 14 14.5003 12.859 14.5003 11.452C14.5003 10.9247 14.3539 10.4329 14.1036 10.0281ZM8.49077 10.8797C8.49077 11.4823 8.06844 11.9432 7.50027 11.9432C6.9321 11.9432 6.50977 11.4823 6.50977 10.8803V10.8552C6.50977 10.2556 6.9321 9.79242 7.50027 9.79242C8.06844 9.79242 8.49077 10.2532 8.49077 10.8552V10.8803V10.8797ZM8.51352 3.7135L8.02352 8.41517C7.99027 8.75408 7.78552 8.96525 7.50027 8.96525C7.21444 8.96525 7.01027 8.75117 6.9776 8.41575L6.4876 3.71117C6.45435 3.34717 6.63344 3.07242 6.94202 3.07242H8.05619C8.36419 3.07533 8.54619 3.3495 8.51352 3.7135Z" fill="#292D32"/>
</g>
<defs>
<clipPath id="clip0_430_77">
<rect width="14" height="14" fill="white" transform="translate(0.5)"/>
</clipPath>
</defs>
</svg>
