<svg width="12" height="12" viewBox="0 0 12 12" fill="none" xmlns="http://www.w3.org/2000/svg">
<g clip-path="url(#clip0_601_11)">
<path d="M4.61278 2.19598C4.81722 2.16278 5.027 2.14595 5.23622 2.14595C5.64831 2.14595 5.98235 1.81191 5.98235 1.39982C5.98235 0.987731 5.64831 0.653687 5.23622 0.653687C4.94713 0.653687 4.65692 0.677003 4.37365 0.723002C3.96689 0.789035 3.69067 1.17232 3.75674 1.57908C3.81621 1.94532 4.13287 2.20572 4.49232 2.20572C4.53205 2.20572 4.5723 2.20255 4.61278 2.19598Z" fill="white"/>
<path d="M3.05045 9.17495C2.66104 8.90627 2.32748 8.57245 2.05913 8.18267C1.82544 7.84329 1.36086 7.75759 1.02148 7.99125C0.682068 8.22493 0.596337 8.68952 0.830064 9.02893C1.20171 9.56872 1.66368 10.0311 2.20306 10.4032C2.33244 10.4925 2.47999 10.5353 2.62612 10.5353C2.86309 10.5353 3.09618 10.4226 3.2409 10.2128C3.47492 9.87363 3.38964 9.40894 3.05045 9.17495Z" fill="white"/>
<path d="M1.47454 5.15671C1.57717 4.6965 1.76214 4.26329 2.02422 3.86911C2.25243 3.526 2.15923 3.06283 1.81612 2.83463C1.4729 2.60646 1.00981 2.69962 0.781646 3.04276C0.417607 3.59013 0.160676 4.19211 0.0180153 4.83192C-0.07167 5.23412 0.18168 5.63286 0.583846 5.72258C0.638575 5.73478 0.693155 5.74063 0.746951 5.74063C1.08879 5.74063 1.39706 5.50422 1.47454 5.15671Z" fill="white"/>
<path d="M11.928 5.61862L10.1567 2.77614C10.0752 2.64542 9.95268 2.57043 9.82046 2.57043C9.68844 2.57043 9.56618 2.6452 9.48493 2.77562L7.71353 5.61869C7.63034 5.75229 7.61873 5.89402 7.68175 6.0075C7.74491 6.12132 7.8719 6.18661 8.03008 6.18661H9.08541C9.08351 6.22627 9.08134 6.26593 9.07825 6.30547C9.0775 6.31487 9.07653 6.32424 9.07575 6.33364C9.07265 6.36986 9.06896 6.40597 9.06485 6.44201C9.06329 6.45582 9.06183 6.46969 9.06012 6.48346C9.0553 6.52189 9.04978 6.56016 9.04385 6.59829C8.80572 8.11996 7.67413 9.34933 6.2044 9.73097C6.17149 9.73948 6.13852 9.74772 6.10531 9.75537C5.82592 9.82002 5.53497 9.8542 5.23622 9.8542C4.82413 9.8542 4.49008 10.1882 4.49008 10.6003C4.49008 11.0124 4.82413 11.3465 5.23622 11.3465C5.62499 11.3465 6.0041 11.3043 6.36952 11.2252C6.37952 11.2234 6.38952 11.2216 6.39951 11.2194C7.03944 11.0773 7.64164 10.8209 8.18938 10.4574C8.20262 10.4486 8.21478 10.4389 8.22728 10.4294C9.41737 9.62319 10.2665 8.35033 10.5105 6.87582C10.5113 6.87138 10.5125 6.86712 10.5132 6.86268C10.5154 6.8494 10.5173 6.83605 10.5193 6.82273C10.5204 6.81564 10.5215 6.80855 10.5226 6.8015C10.5277 6.76718 10.5326 6.73278 10.5371 6.69831C10.5383 6.68891 10.5396 6.67951 10.5407 6.67007C10.5454 6.63295 10.5497 6.59575 10.5535 6.55845C10.5541 6.55352 10.5547 6.54864 10.5552 6.54371C10.5592 6.50338 10.5628 6.46294 10.566 6.42246C10.5671 6.40791 10.568 6.39329 10.5691 6.3787C10.571 6.35181 10.5727 6.32491 10.5742 6.29797C10.5751 6.28182 10.5759 6.26566 10.5766 6.24947C10.5776 6.22851 10.5785 6.20758 10.5792 6.18661H11.6116C11.7697 6.18661 11.8967 6.12132 11.9599 6.0075C12.0229 5.89398 12.0113 5.75225 11.928 5.61862Z" fill="white"/>
</g>
<defs>
<clipPath id="clip0_601_11">
<rect width="12" height="12" fill="white"/>
</clipPath>
</defs>
</svg>
