<svg width="23" height="23" viewBox="0 0 23 23" fill="none" xmlns="http://www.w3.org/2000/svg">
<path fill-rule="evenodd" clip-rule="evenodd" d="M18.886 5.46935C19.2603 5.0951 19.2603 4.48832 18.886 4.11406C18.5118 3.73981 17.905 3.73981 17.5308 4.11406L13.4474 8.19745C12.8767 7.86022 12.211 7.66671 11.5001 7.66671C9.38297 7.66671 7.66673 9.38295 7.66673 11.5C7.66673 12.2109 7.86024 12.8767 8.19747 13.4474L4.11408 17.5307C3.73983 17.905 3.73983 18.5118 4.11408 18.886C4.48834 19.2602 5.09512 19.2602 5.46937 18.886L9.55275 14.8026C10.1234 15.1399 10.7892 15.3334 11.5001 15.3334C13.6171 15.3334 15.3334 13.6171 15.3334 11.5C15.3334 10.7891 15.1399 10.1234 14.8027 9.55274L18.886 5.46935ZM11.9965 9.64825C11.8382 9.60599 11.6718 9.58337 11.5001 9.58337C10.4415 9.58337 9.58339 10.4415 9.58339 11.5C9.58339 11.6718 9.60601 11.8381 9.64827 11.9965L11.9965 9.64825ZM11.0036 13.3518L13.3518 11.0036C13.3941 11.1619 13.4167 11.3283 13.4167 11.5C13.4167 12.5586 12.5586 13.4167 11.5001 13.4167C11.3283 13.4167 11.162 13.3941 11.0036 13.3518ZM15.1083 4.61988C14.0192 4.14051 12.8106 3.83337 11.5001 3.83337C8.76645 3.83337 6.47568 5.16988 4.78992 6.61824C3.09804 8.07185 1.92398 9.71524 1.40294 10.5128C1.00924 11.1153 1.00924 11.8848 1.40294 12.4873C1.84271 13.1604 2.74766 14.4361 4.0365 15.6917L5.39189 14.3363C4.26991 13.247 3.46102 12.1259 3.04758 11.5C3.53669 10.7596 4.57928 9.32614 6.03897 8.07203C7.546 6.77723 9.40681 5.75004 11.5001 5.75004C12.2398 5.75004 12.9505 5.87831 13.6269 6.10135L15.1083 4.61988ZM11.5001 17.25C10.7604 17.25 10.0497 17.1217 9.37336 16.8987L7.8919 18.3802C8.98095 18.8596 10.1896 19.1667 11.5001 19.1667C14.2337 19.1667 16.5245 17.8302 18.2103 16.3819C19.9022 14.9282 21.0762 13.2848 21.5973 12.4873C21.9909 11.8848 21.9909 11.1153 21.5973 10.5128C21.1575 9.83963 20.2525 8.56397 18.9637 7.3084L17.6083 8.66379C18.7303 9.75309 19.5392 10.8742 19.9527 11.5C19.4635 12.2404 18.421 13.6739 16.9612 14.9281C15.4542 16.2229 13.5933 17.25 11.5001 17.25Z" fill="black"/>
</svg>
