<svg width="16" height="16" viewBox="0 0 16 16" fill="none" xmlns="http://www.w3.org/2000/svg">
<path d="M8.125 9.875L10 8M10 8L8.125 6.125M10 8H3.125M3.125 5.03001V5.00013C3.125 4.30006 3.125 3.94976 3.26124 3.68238C3.38108 3.44717 3.57217 3.25608 3.80738 3.13624C4.07476 3 4.42506 3 5.12513 3H11.1251C11.8252 3 12.1748 3 12.4421 3.13624C12.6773 3.25608 12.8691 3.44717 12.9889 3.68238C13.125 3.9495 13.125 4.29937 13.125 4.99807V11.0023C13.125 11.7009 13.125 12.0503 12.9889 12.3174C12.8691 12.5526 12.6773 12.7441 12.4421 12.8639C12.175 13 11.8256 13 11.1269 13H5.12307C4.42437 13 4.0745 13 3.80738 12.8639C3.57217 12.7441 3.38108 12.5524 3.26124 12.3173C3.125 12.0499 3.125 11.7001 3.125 11V10.9688" stroke="black" stroke-width="1.25" stroke-linecap="round" stroke-linejoin="round"/>
</svg>
