<?xml version="1.0" encoding="utf-8"?>
<!-- Generator: Adobe Illustrator 26.3.1, SVG Export Plug-In . SVG Version: 6.00 Build 0)  -->
<svg version="1.1" id="Layer_1" xmlns="http://www.w3.org/2000/svg" xmlns:xlink="http://www.w3.org/1999/xlink" x="0px" y="0px"
	 viewBox="0 0 94.2 94.2" style="enable-background:new 0 0 94.2 94.2;" xml:space="preserve">
<style type="text/css">
	.st0{fill-rule:evenodd;clip-rule:evenodd;}
</style>
<g>
	<path d="M68.8,51.5c-1.2,0.3-2.4,0.5-3.6,0.5c-8.1,0-14.7-6.6-14.7-14.7c0-1.3,0.2-2.5,0.5-3.6c-9.1,0.4-16.3,7.9-16.3,17.1
		c0,9.4,7.7,17.1,17.1,17.1C60.9,67.9,68.4,60.6,68.8,51.5z"/>
	<path class="st0" d="M28.5,39.2c0.7,0,1.2,0.5,1.2,1.2v3.7c0,0.7-0.5,1.2-1.2,1.2s-1.2-0.5-1.2-1.2v-3.7
		C27.3,39.7,27.8,39.2,28.5,39.2z"/>
	<path class="st0" d="M25.4,42.2c0-0.7,0.5-1.2,1.2-1.2h3.7c0.7,0,1.2,0.5,1.2,1.2c0,0.7-0.5,1.2-1.2,1.2h-3.7
		C26,43.5,25.4,42.9,25.4,42.2z"/>
	<path class="st0" d="M35.8,26.3c0.7,0,1.2,0.5,1.2,1.2v4.9c0,0.7-0.5,1.2-1.2,1.2c-0.7,0-1.2-0.5-1.2-1.2v-4.9
		C34.6,26.9,35.1,26.3,35.8,26.3z"/>
	<path class="st0" d="M32.2,30c0-0.7,0.5-1.2,1.2-1.2h4.9c0.7,0,1.2,0.5,1.2,1.2c0,0.7-0.5,1.2-1.2,1.2h-4.9
		C32.7,31.2,32.2,30.7,32.2,30z"/>
</g>
</svg>
