<svg width="23" height="24" viewBox="0 0 23 24" fill="none" xmlns="http://www.w3.org/2000/svg">
<path fill-rule="evenodd" clip-rule="evenodd" d="M6.03872 15.428C4.57904 14.1738 3.53645 12.7403 3.04734 11.9999C3.53645 11.2595 4.57904 9.82602 6.03872 8.5719C7.54575 7.27711 9.40657 6.24992 11.4998 6.24992C13.5931 6.24992 15.454 7.27711 16.961 8.5719C18.4207 9.82602 19.4633 11.2595 19.9524 11.9999C19.4633 12.7403 18.4207 14.1738 16.961 15.428C15.454 16.7228 13.5931 17.7499 11.4998 17.7499C9.40657 17.7499 7.54575 16.7228 6.03872 15.428ZM11.4998 4.33325C8.76621 4.33325 6.47544 5.66976 4.78968 7.11812C3.0978 8.57173 1.92374 10.2151 1.40269 11.0126C1.009 11.6151 1.009 12.3847 1.40269 12.9872C1.92374 13.7847 3.0978 15.4281 4.78968 16.8818C6.47544 18.3301 8.76621 19.6666 11.4998 19.6666C14.2335 19.6666 16.5243 18.3301 18.2101 16.8818C19.9019 15.4281 21.076 13.7847 21.597 12.9872C21.9907 12.3847 21.9907 11.6151 21.597 11.0126C21.076 10.2151 19.9019 8.57173 18.2101 7.11812C16.5243 5.66976 14.2335 4.33325 11.4998 4.33325ZM9.58315 11.9999C9.58315 10.9413 10.4413 10.0833 11.4998 10.0833C12.5584 10.0833 13.4165 10.9413 13.4165 11.9999C13.4165 13.0585 12.5584 13.9166 11.4998 13.9166C10.4413 13.9166 9.58315 13.0585 9.58315 11.9999ZM11.4998 8.16659C9.38276 8.16659 7.66652 9.88283 7.66652 11.9999C7.66652 14.117 9.38276 15.8333 11.4998 15.8333C13.617 15.8333 15.3331 14.117 15.3331 11.9999C15.3331 9.88283 13.617 8.16659 11.4998 8.16659Z" fill="black"/>
</svg>
