<?xml version="1.0" encoding="utf-8"?>
<!-- Generator: Adobe Illustrator 26.3.1, SVG Export Plug-In . SVG Version: 6.00 Build 0)  -->
<svg version="1.1" xmlns="http://www.w3.org/2000/svg" xmlns:xlink="http://www.w3.org/1999/xlink" x="0px" y="0px"
	 viewBox="0 0 30 30" style="enable-background:new 0 0 30 30;" xml:space="preserve">
<style type="text/css">
	.st0{display:none;}
	.st1{display:inline;}
	.st2{fill-rule:evenodd;clip-rule:evenodd;}
	.st3{display:none;fill:none;stroke:#000000;stroke-miterlimit:10;}
	.st4{fill:none;stroke:#000000;stroke-width:2;stroke-linecap:round;stroke-linejoin:round;stroke-miterlimit:10;}
</style>
<g id="Layer_1" class="st0">
	<g class="st1">
		<path d="M-146,41.3c-1.2,0.3-2.3,0.5-3.5,0.5c-7.9,0-14.3-6.4-14.3-14.3c0-1.3,0.2-2.4,0.5-3.5c-8.8,0.4-15.8,7.7-15.8,16.6
			c0,9.1,7.5,16.6,16.6,16.6C-153.7,57.2-146.4,50.1-146,41.3z"/>
		<path class="st2" d="M-185.1,29.3c0.7,0,1.2,0.5,1.2,1.2v3.6c0,0.7-0.5,1.2-1.2,1.2s-1.2-0.5-1.2-1.2v-3.6
			C-186.3,29.8-185.8,29.3-185.1,29.3z"/>
		<path class="st2" d="M-188.2,32.2c0-0.7,0.5-1.2,1.2-1.2h3.6c0.7,0,1.2,0.5,1.2,1.2s-0.5,1.2-1.2,1.2h-3.6
			C-187.6,33.5-188.2,32.9-188.2,32.2z"/>
		<path class="st2" d="M-178,16.8c0.7,0,1.2,0.5,1.2,1.2v4.8c0,0.7-0.5,1.2-1.2,1.2c-0.7,0-1.2-0.5-1.2-1.2v-4.9
			C-179.2,17.4-178.7,16.8-178,16.8z"/>
		<path class="st2" d="M-181.5,20.4c0-0.7,0.5-1.2,1.2-1.2h4.8c0.7,0,1.2,0.5,1.2,1.2c0,0.7-0.5,1.2-1.2,1.2h-4.8
			C-181.1,21.5-181.5,21.1-181.5,20.4z"/>
	</g>
</g>
<g id="Layer_2">
	<g id="GVKquu.tif">
		
			<image style="overflow:visible;" width="62" height="64" id="Layer_0" xlink:href="49EBB193201AFEF0.png"  transform="matrix(0.5 0 0 0.5 -35.0411 -2)">
		</image>
	</g>
	<line class="st3" x1="15" y1="10" x2="15" y2="20"/>
	<g id="More">
		<polyline class="st4" points="6.1,5.3 16.9,15 6.1,24.7 		"/>
		<polyline class="st4" points="13.1,5.3 23.9,15 13.1,24.7 		"/>
	</g>
</g>
</svg>
