<svg width="25" height="24" viewBox="0 0 25 24" fill="none" xmlns="http://www.w3.org/2000/svg">
<path d="M11.5667 2.10001C6.9667 2.60001 3.2667 6.30001 2.7667 10.8C2.2667 15.5 4.9667 19.7 9.0667 21.3C9.3667 21.4 9.6667 21.2 9.6667 20.8V19.2C9.6667 19.2 9.2667 19.3 8.7667 19.3C7.3667 19.3 6.7667 18.1 6.6667 17.4C6.5667 17 6.3667 16.7 6.0667 16.4C5.7667 16.3 5.6667 16.3 5.6667 16.2C5.6667 16 5.9667 16 6.0667 16C6.6667 16 7.1667 16.7 7.3667 17C7.8667 17.8 8.4667 18 8.7667 18C9.1667 18 9.4667 17.9 9.6667 17.8C9.7667 17.1 10.0667 16.4 10.6667 16C8.3667 15.5 6.6667 14.2 6.6667 12C6.6667 10.9 7.1667 9.80001 7.8667 9.00001C7.7667 8.80001 7.6667 8.30001 7.6667 7.60001C7.6667 7.20001 7.6667 6.60001 7.9667 6.00001C7.9667 6.00001 9.3667 6.00001 10.7667 7.30001C11.2667 7.10001 11.9667 7.00001 12.6667 7.00001C13.3667 7.00001 14.0667 7.10001 14.6667 7.30001C15.9667 6.00001 17.4667 6.00001 17.4667 6.00001C17.6667 6.60001 17.6667 7.20001 17.6667 7.60001C17.6667 8.40001 17.5667 8.80001 17.4667 9.00001C18.1667 9.80001 18.6667 10.8 18.6667 12C18.6667 14.2 16.9667 15.5 14.6667 16C15.2667 16.5 15.6667 17.4 15.6667 18.3V20.9C15.6667 21.2 15.9667 21.5 16.3667 21.4C20.0667 19.9 22.6667 16.3 22.6667 12.1C22.6667 6.10001 17.5667 1.40001 11.5667 2.10001Z" fill="white"/>
</svg>
