<svg width="21" height="20" viewBox="0 0 21 20" fill="none" xmlns="http://www.w3.org/2000/svg">
<path d="M9.74997 1.75C5.91663 2.16667 2.8333 5.25 2.41663 9C1.99997 12.9167 4.24997 16.4167 7.66663 17.75C7.91663 17.8333 8.16663 17.6667 8.16663 17.3333V16C8.16663 16 7.8333 16.0833 7.41663 16.0833C6.24997 16.0833 5.74997 15.0833 5.66663 14.5C5.5833 14.1667 5.41663 13.9167 5.16663 13.6667C4.91663 13.5833 4.8333 13.5833 4.8333 13.5C4.8333 13.3333 5.0833 13.3333 5.16663 13.3333C5.66663 13.3333 6.0833 13.9167 6.24997 14.1667C6.66663 14.8333 7.16663 15 7.41663 15C7.74997 15 7.99997 14.9167 8.16663 14.8333C8.24997 14.25 8.49997 13.6667 8.99997 13.3333C7.0833 12.9167 5.66663 11.8333 5.66663 10C5.66663 9.08333 6.0833 8.16667 6.66663 7.5C6.5833 7.33333 6.49997 6.91667 6.49997 6.33333C6.49997 6 6.49997 5.5 6.74997 5C6.74997 5 7.91663 5 9.0833 6.08333C9.49997 5.91667 10.0833 5.83333 10.6666 5.83333C11.25 5.83333 11.8333 5.91667 12.3333 6.08333C13.4166 5 14.6666 5 14.6666 5C14.8333 5.5 14.8333 6 14.8333 6.33333C14.8333 7 14.75 7.33333 14.6666 7.5C15.25 8.16667 15.6666 9 15.6666 10C15.6666 11.8333 14.25 12.9167 12.3333 13.3333C12.8333 13.75 13.1666 14.5 13.1666 15.25V17.4167C13.1666 17.6667 13.4166 17.9167 13.75 17.8333C16.8333 16.5833 19 13.5833 19 10.0833C19 5.08333 14.75 1.16667 9.74997 1.75Z" fill="white"/>
</svg>
