<svg width="33" height="32" viewBox="0 0 33 32" fill="none" xmlns="http://www.w3.org/2000/svg">
<path d="M7.83331 5C6.46613 5 5.33331 6.13281 5.33331 7.5V24.5C5.33331 25.8672 6.46613 27 7.83331 27H24.8333C26.2005 27 27.3333 25.8672 27.3333 24.5V7.5C27.3333 6.13281 26.2005 5 24.8333 5H7.83331ZM7.83331 7H24.8333C25.1185 7 25.3333 7.21484 25.3333 7.5V24.5C25.3333 24.7852 25.1185 25 24.8333 25H7.83331C7.54816 25 7.33331 24.7852 7.33331 24.5V7.5C7.33331 7.21484 7.54816 7 7.83331 7ZM10.7708 8.71875C9.82159 8.71875 9.05206 9.48828 9.05206 10.4375C9.05206 11.3867 9.82159 12.1562 10.7708 12.1562C11.72 12.1562 12.4896 11.3867 12.4896 10.4375C12.4896 9.48828 11.72 8.71875 10.7708 8.71875ZM19.8021 13.2812C18.3685 13.2812 17.4153 14.0664 17.0208 14.8125H16.9583V13.5H14.1458V23H17.0833V18.3125C17.0833 17.0742 17.3294 15.875 18.8646 15.875C20.3763 15.875 20.3958 17.2734 20.3958 18.375V23H23.3333V17.7812C23.3333 15.2266 22.7903 13.2812 19.8021 13.2812ZM9.33331 13.5V23H12.3021V13.5H9.33331Z" fill="white"/>
</svg>
