<svg width="21" height="20" viewBox="0 0 21 20" fill="none" xmlns="http://www.w3.org/2000/svg">
<path d="M4.53792 2.5C3.60575 2.5 2.83337 3.27237 2.83337 4.20455V15.7955C2.83337 16.7276 3.60575 17.5 4.53792 17.5H16.1288C17.061 17.5 17.8334 16.7276 17.8334 15.7955V4.20455C17.8334 3.27237 17.061 2.5 16.1288 2.5H4.53792ZM4.53792 3.86364H16.1288C16.3233 3.86364 16.4697 4.01012 16.4697 4.20455V15.7955C16.4697 15.9899 16.3233 16.1364 16.1288 16.1364H4.53792C4.34349 16.1364 4.19701 15.9899 4.19701 15.7955V4.20455C4.19701 4.01012 4.34349 3.86364 4.53792 3.86364ZM6.54076 5.03551C5.89357 5.03551 5.36889 5.56019 5.36889 6.20739C5.36889 6.85458 5.89357 7.37926 6.54076 7.37926C7.18796 7.37926 7.71264 6.85458 7.71264 6.20739C7.71264 5.56019 7.18796 5.03551 6.54076 5.03551ZM12.6984 8.14631C11.721 8.14631 11.0711 8.68164 10.8021 9.19034H10.7595V8.29545H8.8419V14.7727H10.8447V11.5767C10.8447 10.7324 11.0125 9.91477 12.0592 9.91477C13.0899 9.91477 13.1033 10.8683 13.1033 11.6193V14.7727H15.1061V11.2145C15.1061 9.47266 14.7359 8.14631 12.6984 8.14631ZM5.56065 8.29545V14.7727H7.58479V8.29545H5.56065Z" fill="black"/>
</svg>
